<svg width="640" height="316" viewBox="0 0 640 316" fill="none" xmlns="http://www.w3.org/2000/svg">
<path d="M103.145 307.866C103.145 307.866 159.716 154.479 321.889 154.479C484.061 154.479 536.861 307.866 536.861 307.866H103.145Z" fill="#C9A96E"/>
<path d="M539.447 300.902C540.005 302.502 540.802 304.652 541.37 306.314L543.617 312.531L536.861 312.635C517.343 312.491 500.731 316.338 476.163 315.736C449.296 315.077 445.272 312.603 414.502 313.16C383.734 313.716 352.948 312.024 339.248 313.04C325.549 314.057 324.103 310.984 304.648 311.666C285.194 312.349 273.404 311.948 256.39 310.949C239.375 309.95 187.102 309.097 168.095 310.324C149.087 311.551 127.408 309.422 114.37 308.917C110.308 308.759 107.113 308.544 104.662 308.32C103.624 308.225 103.145 308.026 103.145 307.83C103.145 307.83 103.145 307.83 103.145 307.83C103.145 307.586 103.888 307.346 105.222 307.315C111.698 307.165 121.376 306.77 132.809 305.884C154.126 304.233 156.456 306.058 185.242 305.209C214.029 304.361 231.324 302.665 265.194 303.761C299.064 304.858 306.844 300.268 354.655 302.869C402.465 305.471 407.497 300.67 455.141 300.032C481.04 299.685 510.631 300.309 536.861 300.916L530.289 310.128C523.445 290.534 513.726 273.347 506.582 262.698C491.071 239.465 465.561 210.643 431.766 189.909C402.588 171.313 361.07 160.777 321.889 160.813C315.985 160.75 310.451 160.846 304.782 161.099C260.27 160.79 201.955 187.961 180.062 207.342C157.551 225.646 152.491 231.12 135.925 253.717C126.536 267.03 114.841 285.587 106.1 302.553C101.888 311.103 101.769 308.774 105.265 299.746C110.54 286.659 116.783 276.852 119.666 270.069C125.551 256.679 128.404 250.798 140.992 237.17C153.789 223.81 158.076 215.865 166.274 208.716C175.261 202.638 173.18 199.86 220.862 172.33C269.254 148.33 301.324 148.73 321.889 147.791C322.488 147.782 323.078 147.776 323.66 147.771C344.732 146.926 388.596 154.423 419.585 169.519C452.586 181.403 503.111 231.281 517.376 255.375C533.018 278.635 531.23 279.875 539.447 300.902Z" fill="#C9A96E"/>
<path d="M2.64844 131.23L47.3468 91.0903L130.545 183.821L124.159 189.555L2.64844 131.23Z" fill="#C9A96E"/>
<path d="M129.624 177.976C130.748 179.515 132.045 180.817 133.445 182.034L135.201 183.867L133.172 185.805C131.363 187.874 129.82 190.091 127.893 192.375L125.28 194.87L121.537 193.202C119.245 192.429 116.868 191.492 114.395 190.168C106.379 185.877 106.034 184.045 96.3819 179.787C86.7306 175.529 77.8832 170.143 73.3092 168.632C68.7352 167.121 69.3974 165.369 63.1758 162.843C56.9546 160.316 53.4773 158.377 48.6108 155.368C43.7439 152.359 27.9946 144.225 21.7143 142.037C15.434 139.849 9.54128 135.587 5.71825 133.411C4.52744 132.734 3.62324 132.155 2.95123 131.682C2.66661 131.481 2.59082 131.311 2.66131 131.213C2.66135 131.213 2.6614 131.212 2.66145 131.212C2.74946 131.09 3.06424 131.08 3.48511 131.261C5.52806 132.141 8.64303 133.37 12.4736 134.612C19.6161 136.928 19.6749 138.185 28.8225 142.005C37.9701 145.824 43.8931 147.525 53.9022 153.068C63.9111 158.611 67.9529 157.46 81.7026 165.811C95.452 174.163 98.7255 172.501 113.59 179.206C117.906 181.153 122.446 183.394 126.934 185.696L120.208 186.572C122.423 184.692 124.658 182.832 126.844 181.027L126.46 186.338C121.131 179.828 116.352 173.804 113.023 170.209C106.832 163.524 98.3666 154.637 90.1243 144.829C81.8819 135.022 70.3598 123.746 61.5054 112.77C56.5812 106.666 50.494 99.1759 45.0868 92.483L49.3942 92.6363C43.7735 97.2238 38.6832 101.357 35.2847 104.049C27.6284 110.114 25.7711 111.599 19.173 118.019C15.3804 121.71 9.75605 126.492 4.50909 130.157C1.86848 132.002 1.9508 131.194 4.07548 128.935C7.18246 125.631 10.1953 123.269 11.4015 121.269C13.8117 117.272 14.8819 115.608 19.9691 112.106C25.056 108.604 25.6828 105.618 28.4409 103.42C31.1991 101.222 32.0213 101.913 44.521 89.5867C44.6421 89.4673 44.7628 89.3483 44.8829 89.2299L47.4987 86.7327L50.0665 89.4144C61.9678 101.437 68.3198 108.195 72.767 112.849C77.2578 117.549 85.4378 128.1 92.7678 135.753C100.098 143.405 114.118 159.506 120.37 165.626C126.621 171.747 125.564 172.418 129.624 177.976Z" fill="#C9A96E"/>
<path d="M170.074 17.1191L228.641 3.73608L256.339 125.201L247.972 127.113L170.074 17.1191Z" fill="#C9A96E"/>
<path d="M258.372 119.644C258.607 121.536 259.109 123.304 259.741 125.047L260.386 127.502L257.672 128.211C255.086 129.141 252.66 130.33 249.867 131.39L246.37 132.303L243.909 129.028C242.28 127.238 240.657 125.265 239.139 122.907C234.216 115.263 234.803 113.494 228.433 105.085C222.064 96.6756 216.946 87.6708 213.681 84.1286C210.416 80.5866 211.846 79.3767 207.634 74.1466C203.423 68.9169 201.325 65.533 198.532 60.5397C195.738 55.546 185.921 40.7873 181.493 35.8248C177.066 30.8622 173.984 24.2744 171.699 20.5165C170.987 19.3459 170.477 18.4007 170.12 17.6605C169.968 17.347 169.985 17.1614 170.094 17.1097C170.094 17.1097 170.094 17.1097 170.094 17.1096C170.231 17.0456 170.511 17.1892 170.791 17.552C172.15 19.3131 174.276 21.9002 177.021 24.8465C182.14 30.3399 181.581 31.4673 187.723 39.2484C193.864 47.0294 198.216 51.3925 204.274 61.0986C210.332 70.8045 214.424 71.7611 222.388 85.7389C230.352 99.7163 234.02 99.8537 243.758 112.934C246.586 116.732 249.466 120.895 252.272 125.086L245.967 122.586C248.815 122.018 251.673 121.477 254.461 120.961L251.545 125.418C250.049 117.139 248.796 109.553 247.632 104.793C245.466 95.9421 242.382 84.0625 239.939 71.4868C237.496 58.911 232.9 43.4582 230.49 29.5636C229.15 21.8364 227.466 12.3326 225.989 3.85601L229.68 6.08182C222.539 7.36251 216.082 8.50333 211.804 9.20637C202.166 10.7902 199.821 11.1864 190.935 13.5949C185.827 14.9793 178.588 16.4287 172.222 17.0844C169.018 17.4144 169.482 16.7484 172.436 15.8054C176.757 14.4264 180.538 13.8241 182.564 12.6614C186.611 10.3379 188.355 9.40297 194.503 8.81219C200.65 8.22138 202.648 5.915 206.127 5.33308C209.605 4.75121 209.988 5.75474 226.901 1.04941C227.065 1.00379 227.228 0.958399 227.391 0.913225L230.89 0.000493113L231.832 3.59176C236.398 19.8809 238.669 28.8735 240.296 35.1017C241.94 41.3909 243.966 54.5867 246.658 64.8358C249.35 75.085 253.787 95.9681 256.279 104.354C258.772 112.741 257.522 112.815 258.372 119.644Z" fill="#C9A96E"/>
<path d="M639.266 131.23L594.567 91.0903L511.369 183.821L517.755 189.555L639.266 131.23Z" fill="#C9A96E"/>
<path d="M512.29 177.976C511.166 179.515 509.869 180.817 508.469 182.034L506.713 183.867L508.742 185.805C510.551 187.874 512.094 190.091 514.021 192.375L516.634 194.87L520.377 193.202C522.669 192.429 525.046 191.492 527.519 190.168C535.535 185.877 535.88 184.045 545.532 179.787C555.183 175.529 564.031 170.143 568.605 168.632C573.179 167.121 572.517 165.369 578.738 162.843C584.959 160.316 588.437 158.377 593.303 155.368C598.17 152.359 613.919 144.225 620.2 142.037C626.48 139.849 632.373 135.587 636.196 133.411C637.387 132.734 638.291 132.155 638.963 131.682C639.247 131.481 639.323 131.311 639.253 131.213C639.253 131.213 639.253 131.212 639.253 131.212C639.165 131.09 638.85 131.08 638.429 131.261C636.386 132.141 633.271 133.37 629.44 134.612C622.298 136.928 622.239 138.185 613.092 142.005C603.944 145.824 598.021 147.525 588.012 153.068C578.003 158.611 573.961 157.46 560.211 165.811C546.462 174.163 543.189 172.501 528.324 179.206C524.008 181.153 519.468 183.394 514.98 185.696L521.706 186.572C519.492 184.692 517.256 182.832 515.07 181.027L515.454 186.338C520.783 179.828 525.562 173.804 528.891 170.209C535.083 163.524 543.547 154.637 551.79 144.829C560.032 135.022 571.554 123.746 580.409 112.77C585.333 106.666 591.42 99.1759 596.827 92.483L592.52 92.6363C598.141 97.2238 603.231 101.357 606.629 104.049C614.286 110.114 616.143 111.599 622.741 118.019C626.534 121.71 632.158 126.492 637.405 130.157C640.046 132.002 639.963 131.194 637.839 128.935C634.732 125.631 631.719 123.269 630.513 121.269C628.102 117.272 627.032 115.608 621.945 112.106C616.858 108.604 616.231 105.618 613.473 103.42C610.715 101.222 609.893 101.913 597.393 89.5867C597.272 89.4673 597.151 89.3483 597.031 89.2299L594.415 86.7327L591.848 89.4144C579.946 101.437 573.594 108.195 569.147 112.849C564.656 117.549 556.476 128.1 549.146 135.753C541.816 143.405 527.796 159.506 521.544 165.626C515.293 171.747 516.35 172.418 512.29 177.976Z" fill="#C9A96E"/>
<path d="M472.223 17.1191L413.656 3.73608L385.958 125.201L394.325 127.113L472.223 17.1191Z" fill="#C9A96E"/>
<path d="M383.925 119.644C383.69 121.536 383.188 123.304 382.555 125.047L381.911 127.502L384.625 128.211C387.211 129.141 389.637 130.33 392.43 131.39L395.927 132.303L398.388 129.028C400.016 127.238 401.639 125.265 403.158 122.907C408.081 115.263 407.494 113.494 413.863 105.085C420.233 96.6756 425.351 87.6708 428.616 84.1286C431.881 80.5866 430.451 79.3767 434.663 74.1466C438.874 68.9169 440.972 65.533 443.765 60.5397C446.559 55.546 456.376 40.7873 460.804 35.8248C465.231 30.8622 468.313 24.2744 470.598 20.5165C471.31 19.3459 471.819 18.4007 472.177 17.6605C472.328 17.347 472.312 17.1614 472.203 17.1097C472.203 17.1097 472.203 17.1097 472.202 17.1096C472.066 17.0456 471.786 17.1892 471.506 17.552C470.147 19.3131 468.021 21.9002 465.276 24.8465C460.157 30.3399 460.716 31.4673 454.574 39.2484C448.432 47.0294 444.081 51.3925 438.023 61.0986C431.965 70.8045 427.873 71.7611 419.909 85.7389C411.945 99.7163 408.277 99.8537 398.539 112.934C395.711 116.732 392.83 120.895 390.025 125.086L396.33 122.586C393.482 122.018 390.624 121.477 387.836 120.961L390.752 125.418C392.248 117.139 393.501 109.553 394.665 104.793C396.831 95.9421 399.915 84.0625 402.358 71.4868C404.8 58.911 409.397 43.4582 411.807 29.5636C413.147 21.8364 414.831 12.3326 416.308 3.85601L412.617 6.08182C419.758 7.36251 426.215 8.50333 430.493 9.20637C440.131 10.7902 442.476 11.1864 451.362 13.5949C456.469 14.9793 463.708 16.4287 470.075 17.0844C473.279 17.4144 472.815 16.7484 469.86 15.8054C465.54 14.4264 461.759 13.8241 459.733 12.6614C455.686 10.3379 453.942 9.40297 447.794 8.81219C441.647 8.22138 439.649 5.915 436.17 5.33308C432.692 4.75121 432.309 5.75474 415.396 1.04941C415.232 1.00379 415.069 0.958399 414.906 0.913225L411.407 0.000493113L410.465 3.59176C405.899 19.8809 403.628 28.8735 402.001 35.1017C400.357 41.3909 398.33 54.5867 395.639 64.8358C392.947 75.085 388.51 95.9681 386.017 104.354C383.525 112.741 384.775 112.815 383.925 119.644Z" fill="#C9A96E"/>
<path d="M290.59 244.48C284.965 237.206 279.887 229.042 278.829 219.907C277.771 210.773 281.712 200.528 290.052 196.667C297.326 193.299 306.355 195.565 312.42 200.81C318.486 206.048 321.934 213.762 323.706 221.583C326.518 212.951 330.424 204.672 335.3 197.01C337.91 192.902 341.639 188.538 346.506 188.758C350.808 188.952 354.053 192.743 356.072 196.543C361.724 207.194 362.032 220.093 358.973 231.757C355.711 244.206 344.663 272.067 329.93 274.448C314.977 276.863 298.411 254.575 290.599 244.48H290.59Z" fill="#F5F2ED"/>
<path d="M358.488 305.089C372.614 305.968 383.734 302.082 400.952 302.631C418.169 303.18 420.748 305.242 440.466 304.778C460.184 304.314 479.913 305.724 488.692 304.877C497.471 304.03 498.398 306.591 510.865 306.022C523.332 305.454 530.888 305.788 541.791 306.621C552.695 307.453 586.193 308.164 598.374 307.141C610.555 306.118 624.448 307.893 632.803 308.314C635.405 308.445 637.453 308.624 639.024 308.811C639.689 308.89 639.996 309.056 639.996 309.219C639.996 309.219 639.996 309.219 639.996 309.219C639.996 309.423 639.52 309.623 638.665 309.649C634.515 309.773 628.313 310.103 620.986 310.841C607.325 312.217 605.832 310.696 587.385 311.403C568.938 312.11 557.854 313.524 536.149 312.61C514.444 311.696 509.458 315.521 478.819 313.353C448.181 311.185 444.956 315.186 414.424 315.718C383.891 316.25 345.35 314.043 326.945 314.226C308.539 314.409 283.819 314.875 257.727 314.347C231.635 313.819 199.426 315.151 170.624 314.209C141.823 313.267 101.105 312.078 82.2932 311.281C63.4825 310.483 58.8975 310.304 40.7912 310.791C30.3835 311.071 16.0459 310.807 3.93529 309.777C-2.15955 309.259 -0.778456 308.537 5.35621 308.192C14.3271 307.687 21.6912 308.024 26.3135 307.123C35.5498 305.32 39.4754 304.629 51.1356 305.678C62.7952 306.727 68.2892 304.343 75.0861 304.617C81.8832 304.892 81.7714 306.298 116.332 305.215C150.893 304.131 169.839 303.855 182.927 303.595C196.015 303.335 223.343 304.555 244.673 304.115C266.003 303.674 309.367 304.078 326.847 303.357C344.327 302.636 344.363 304.209 358.488 305.089Z" fill="#C9A96E"/>
</svg>
