<svg width="896" height="230" viewBox="0 0 896 230" fill="none" xmlns="http://www.w3.org/2000/svg">
<path d="M778.083 131.537C779.028 130.849 780.004 130.161 781.02 129.442C784.466 127.003 789.279 127.585 791.876 130.913C795.653 135.752 799.894 141.236 802.328 144.388C803.504 145.911 803.493 148.091 802.133 149.451C788.881 161.231 774.402 171.783 757.224 176.691C729.984 184.299 706.67 176.446 687.528 155.832C679.43 147.242 672.804 137.426 666.178 127.855C658.571 117.303 649.981 111.413 637.957 109.941C637.205 109.873 636.034 109.823 634.735 109.788C630.538 109.673 627.116 113.056 627.048 117.255C626.873 127.989 626.482 147.83 625.816 161.248C625.632 164.943 622.769 167.889 619.07 167.986C613.969 168.12 607.932 168.013 603.312 167.88C599.213 167.761 596 164.401 596.008 160.3C596.058 135.691 596.199 55.2399 595.992 16.4414C595.992 14.8072 595.992 12.1103 595.992 9.51836C595.992 5.52609 599.035 2.2163 603.023 2.02786C617.06 1.36459 648.492 0.849707 663.479 8.34307C682.62 17.6685 694.4 33.6198 697.345 54.9701C699.308 67.9766 694.645 79.2652 685.565 88.836C685.069 89.2767 684.277 89.8782 683.346 90.5461C679.315 93.4367 678.707 99.2461 682.214 102.753C687.141 107.681 691.85 112.754 695.872 118.285C705.443 131.537 716.241 146.261 733.665 148.715C750.352 150.924 765.322 140.617 778.083 131.537ZM655.135 78.2836C664.951 71.9031 672.313 52.516 661.515 39.0187C655.716 30.7335 641.525 29.2735 632.918 29.199C628.953 29.1647 625.959 32.4841 625.994 36.4499L626.35 76.7532C626.389 81.1742 630.149 84.629 634.529 84.0256C641.269 83.0971 650.484 81.3361 655.135 78.2836Z" fill="#C9A96E"/>
<path d="M798.571 0.0467952C801.628 -0.00272879 804.384 1.79799 805.599 4.60351C825.308 50.1128 859.071 128.046 871.357 156.404C873.551 161.468 869.839 167.121 864.32 167.121H852.262C849.236 167.121 846.501 165.36 845.256 162.603C840.785 152.703 829.862 128.752 821.93 113.282C820.637 110.76 818.035 109.205 815.201 109.205C797.478 109.205 771.67 109.205 760.725 109.205C757.571 109.205 754.748 111.132 753.559 114.052C752.647 116.293 751.46 119.169 750.101 122.377C749.47 123.866 748.381 125.141 746.941 125.878C735.212 131.877 727.172 127.737 723.149 124.361C721.088 122.631 720.853 119.734 721.974 117.289L773.423 5.01604C774.626 2.39044 777.199 0.663452 780.085 0.56074C784.827 0.391999 792.32 0.148063 798.571 0.0467952ZM772.756 69.3833C770.428 74.4631 774.135 80.2357 779.723 80.1826C784.916 80.1332 791.107 80.0463 796.815 79.8935C801.854 79.7586 805.229 74.8221 803.514 70.0817C801.169 63.6001 798.378 56.2422 795.897 49.8078C793.471 43.5137 784.718 43.2838 781.908 49.4161L772.756 69.3833Z" fill="#A8C4B0"/>
<path d="M264.499 8.9787C269.736 8.94308 273.884 12.8894 273.888 18.1263C273.892 22.7315 273.834 27.8085 273.714 30.3355C272.317 65.7242 273.947 104.838 263.004 138.131C252.76 169.795 218.07 180.039 190.597 171.192C160.796 163.974 147.525 132.078 145.197 107.865C141.239 80.8576 139.376 41.2781 141.472 13.1068C141.629 12.0044 157.979 11.9673 168.543 12.0587C173.598 12.1024 177.553 15.8919 177.542 20.9474C177.49 44.9124 175.707 107.186 184.776 127.887C194.555 150.238 222.261 147.677 230.176 126.723C236.695 109.029 236.695 92.2658 237.859 74.5714C238.794 60.7337 239.429 35.9321 239.522 19.4673C239.554 13.7808 244.129 9.11727 249.816 9.07859L264.499 8.9787Z" fill="#A8C4B0"/>
<path d="M484.153 191.903C492.495 192.575 506.442 191.183 517.341 189.787C526.368 188.632 534.028 190.433 536.254 199.257C538.45 207.963 534.402 220.664 525.627 222.567C483.401 231.727 439.286 221.909 405.133 196.075C384.028 180.369 367.095 162.209 345.99 146.503C345.661 146.252 345.336 145.998 345.014 145.741C337.499 139.738 330.223 145.632 330.069 155.249C330.062 155.648 330.056 156.048 330.048 156.448C329.886 165.375 322.402 172.328 313.479 172.017C304.749 171.712 297.706 164.676 297.501 155.943C296.458 111.602 296.022 67.5134 297.421 23.1856C297.759 12.4662 306.439 3.83585 317.164 3.80443C336.615 3.74746 355.536 5.09715 374.457 11.7752C385.009 15.4563 393.353 21.8368 400.47 31.1622C415.685 50.3038 416.912 71.4087 406.851 93.2498C404.642 97.9125 401.452 101.839 398.261 105.765C394.58 109.937 391.145 114.109 386.727 117.545C385.991 118.036 377.157 124.662 376.666 124.171C376.666 124.171 406.36 153.374 408.568 155.337C411.513 157.791 414.213 160 417.158 162.209C425.011 168.835 433.354 174.234 441.944 179.387C455.441 186.995 469.429 190.676 484.153 191.903ZM358.26 101.594C366.604 97.6671 372.985 93.2498 377.647 86.133C382.555 79.0163 386.727 72.3903 381.819 56.6844C378.179 44.8529 364.952 37.4767 347.848 34.7562C337.231 33.0675 328.451 41.955 328.41 52.7058C328.367 63.912 328.629 75.0936 329.007 86.2976C329.392 97.6864 339.24 107.044 350.291 104.266C353.095 103.561 355.786 102.685 358.26 101.594Z" fill="#C47A5A"/>
<path d="M551.883 28.7101C564.644 44.1707 571.515 62.0853 572.497 82.4539C572.742 114.357 562.681 140.86 537.158 159.02C506.483 180.861 466.727 174.236 443.414 143.314C410.775 100.123 425.499 35.8269 467.954 12.5134C495.93 -2.94716 530.778 3.43338 551.883 28.7101ZM529.796 124.173C545.993 104.295 546.484 73.3739 531.023 53.0053C515.317 32.1458 488.323 30.428 470.654 49.0788C459.61 60.8582 455.193 75.3372 455.929 91.5339C456.666 102.332 459.12 111.166 464.518 119.51C479.979 144.541 511.391 146.996 529.796 124.173Z" fill="#4A7860"/>
<path d="M76.1571 78.9255C74.5725 74.3178 68.0522 74.3283 66.4824 78.941L59.1242 100.563C57.747 104.61 61.7338 108.642 65.9726 108.088C67.9954 107.824 70.0139 107.692 72.0159 107.692C73.6524 107.692 75.3021 107.785 76.9563 107.966C81.1319 108.425 84.9367 104.454 83.5706 100.481L76.1571 78.9255ZM77.8285 11.4707C79.9552 11.4707 81.8597 12.7872 82.6113 14.7766L140.22 167.276C141.483 170.62 139.012 174.196 135.437 174.196H112.463C110.274 174.196 108.329 172.802 107.623 170.731L99.6869 147.418C99.3795 146.515 98.8302 145.709 98.0715 145.131C90.9983 139.743 82.6209 137.049 72.7349 137.049C61.1141 137.049 51.482 140.364 43.8384 147.098C43.2123 147.65 42.7567 148.366 42.4863 149.156L35.0946 170.739C34.3866 172.807 32.443 174.196 30.2578 174.196H7.3915C3.81799 174.196 1.34693 170.623 2.6076 167.279L60.1038 14.7797C60.8545 12.7886 62.7598 11.4707 64.8877 11.4707H77.8285Z" fill="#C9A96E"/>
<path d="M560.908 223.84C560.212 223.84 559.672 223.649 559.29 223.267C558.931 222.863 558.751 222.312 558.751 221.616V201.766C558.751 201.047 558.931 200.496 559.29 200.114C559.672 199.733 560.212 199.542 560.908 199.542C561.605 199.542 562.133 199.733 562.492 200.114C562.874 200.496 563.065 201.047 563.065 201.766V221.616C563.065 222.312 562.885 222.863 562.526 223.267C562.166 223.649 561.627 223.84 560.908 223.84ZM570.285 223.84C569.633 223.84 569.127 223.66 568.768 223.301C568.431 222.941 568.263 222.424 568.263 221.75V201.698C568.263 201.002 568.431 200.474 568.768 200.114C569.127 199.733 569.588 199.542 570.15 199.542C570.666 199.542 571.048 199.643 571.296 199.845C571.565 200.025 571.88 200.339 572.239 200.789L585.147 217.538H584.27V201.597C584.27 200.946 584.439 200.44 584.776 200.081C585.135 199.721 585.641 199.542 586.292 199.542C586.944 199.542 587.438 199.721 587.775 200.081C588.112 200.44 588.281 200.946 588.281 201.597V221.818C588.281 222.447 588.124 222.941 587.809 223.301C587.494 223.66 587.068 223.84 586.528 223.84C586.012 223.84 585.596 223.739 585.281 223.537C584.989 223.334 584.664 223.009 584.304 222.559L571.43 205.81H572.273V221.75C572.273 222.424 572.104 222.941 571.767 223.301C571.43 223.66 570.936 223.84 570.285 223.84ZM601.662 223.907C600.673 223.907 599.685 223.829 598.696 223.671C597.707 223.537 596.775 223.323 595.899 223.031C595.023 222.717 594.236 222.335 593.54 221.885C593.135 221.616 592.854 221.29 592.697 220.908C592.54 220.526 592.484 220.155 592.529 219.796C592.596 219.414 592.742 219.088 592.967 218.818C593.214 218.526 593.517 218.347 593.877 218.279C594.236 218.212 594.629 218.313 595.056 218.583C596.045 219.167 597.09 219.594 598.19 219.863C599.291 220.133 600.448 220.268 601.662 220.268C603.437 220.268 604.728 219.976 605.537 219.391C606.346 218.785 606.75 218.01 606.75 217.066C606.75 216.28 606.458 215.662 605.874 215.212C605.313 214.763 604.335 214.392 602.942 214.1L599.235 213.325C597.101 212.876 595.506 212.123 594.45 211.067C593.416 209.989 592.899 208.573 592.899 206.821C592.899 205.72 593.124 204.72 593.573 203.822C594.023 202.923 594.652 202.148 595.461 201.496C596.292 200.845 597.269 200.35 598.393 200.013C599.538 199.654 600.797 199.474 602.167 199.474C603.515 199.474 604.796 199.643 606.009 199.98C607.222 200.317 608.312 200.811 609.278 201.463C609.638 201.71 609.873 202.013 609.986 202.372C610.121 202.732 610.154 203.091 610.087 203.451C610.019 203.788 609.862 204.08 609.615 204.327C609.368 204.574 609.053 204.72 608.671 204.765C608.312 204.81 607.896 204.698 607.425 204.428C606.593 203.956 605.751 203.619 604.897 203.417C604.043 203.215 603.122 203.114 602.133 203.114C601.1 203.114 600.213 203.26 599.471 203.552C598.73 203.844 598.157 204.26 597.752 204.799C597.37 205.316 597.179 205.934 597.179 206.652C597.179 207.461 597.449 208.113 597.988 208.607C598.527 209.079 599.449 209.45 600.752 209.719L604.425 210.494C606.649 210.966 608.301 211.708 609.379 212.719C610.48 213.73 611.03 215.078 611.03 216.763C611.03 217.841 610.806 218.818 610.356 219.695C609.93 220.571 609.301 221.324 608.469 221.953C607.66 222.582 606.683 223.065 605.537 223.402C604.391 223.739 603.1 223.907 601.662 223.907ZM622.125 223.84C621.429 223.84 620.889 223.649 620.508 223.267C620.148 222.863 619.968 222.312 619.968 221.616V203.417H613.397C612.813 203.417 612.352 203.26 612.015 202.945C611.7 202.608 611.543 202.159 611.543 201.597C611.543 201.013 611.7 200.575 612.015 200.283C612.352 199.968 612.813 199.811 613.397 199.811H630.854C631.438 199.811 631.887 199.968 632.202 200.283C632.539 200.575 632.707 201.013 632.707 201.597C632.707 202.159 632.539 202.608 632.202 202.945C631.887 203.26 631.438 203.417 630.854 203.417H624.282V221.616C624.282 222.312 624.102 222.863 623.743 223.267C623.383 223.649 622.844 223.84 622.125 223.84ZM637.327 223.84C636.631 223.84 636.092 223.649 635.71 223.267C635.35 222.863 635.171 222.312 635.171 221.616V201.766C635.171 201.047 635.35 200.496 635.71 200.114C636.092 199.733 636.631 199.542 637.327 199.542C638.024 199.542 638.552 199.733 638.911 200.114C639.293 200.496 639.484 201.047 639.484 201.766V221.616C639.484 222.312 639.305 222.863 638.945 223.267C638.586 223.649 638.046 223.84 637.327 223.84ZM652.568 223.84C651.871 223.84 651.332 223.649 650.95 223.267C650.591 222.863 650.411 222.312 650.411 221.616V203.417H643.839C643.255 203.417 642.795 203.26 642.458 202.945C642.143 202.608 641.986 202.159 641.986 201.597C641.986 201.013 642.143 200.575 642.458 200.283C642.795 199.968 643.255 199.811 643.839 199.811H661.296C661.881 199.811 662.33 199.968 662.644 200.283C662.981 200.575 663.15 201.013 663.15 201.597C663.15 202.159 662.981 202.608 662.644 202.945C662.33 203.26 661.881 203.417 661.296 203.417H654.725V221.616C654.725 222.312 654.545 222.863 654.186 223.267C653.826 223.649 653.287 223.84 652.568 223.84ZM675.488 223.907C673.848 223.907 672.398 223.694 671.14 223.267C669.905 222.84 668.86 222.211 668.006 221.38C667.152 220.526 666.512 219.47 666.085 218.212C665.658 216.954 665.445 215.493 665.445 213.831V201.732C665.445 200.991 665.625 200.44 665.984 200.081C666.366 199.721 666.905 199.542 667.602 199.542C668.298 199.542 668.826 199.721 669.186 200.081C669.568 200.44 669.758 200.991 669.758 201.732V213.797C669.758 215.931 670.242 217.538 671.208 218.616C672.196 219.672 673.623 220.2 675.488 220.2C677.352 220.2 678.768 219.672 679.734 218.616C680.7 217.538 681.183 215.931 681.183 213.797V201.732C681.183 200.991 681.363 200.44 681.722 200.081C682.104 199.721 682.643 199.542 683.34 199.542C684.014 199.542 684.531 199.721 684.89 200.081C685.272 200.44 685.463 200.991 685.463 201.732V213.831C685.463 216.033 685.081 217.886 684.317 219.391C683.576 220.897 682.464 222.031 680.981 222.795C679.498 223.537 677.667 223.907 675.488 223.907ZM698.38 223.84C697.684 223.84 697.144 223.649 696.762 223.267C696.403 222.863 696.223 222.312 696.223 221.616V203.417H689.651C689.067 203.417 688.607 203.26 688.27 202.945C687.955 202.608 687.798 202.159 687.798 201.597C687.798 201.013 687.955 200.575 688.27 200.283C688.607 199.968 689.067 199.811 689.651 199.811H707.109C707.693 199.811 708.142 199.968 708.457 200.283C708.794 200.575 708.962 201.013 708.962 201.597C708.962 202.159 708.794 202.608 708.457 202.945C708.142 203.26 707.693 203.417 707.109 203.417H700.537V221.616C700.537 222.312 700.357 222.863 699.998 223.267C699.638 223.649 699.099 223.84 698.38 223.84ZM720.627 223.907C718.335 223.907 716.324 223.402 714.594 222.391C712.887 221.38 711.561 219.964 710.618 218.144C709.674 216.302 709.202 214.145 709.202 211.674C709.202 209.809 709.472 208.135 710.011 206.652C710.55 205.147 711.314 203.867 712.303 202.811C713.314 201.732 714.516 200.912 715.909 200.35C717.324 199.766 718.897 199.474 720.627 199.474C722.941 199.474 724.952 199.98 726.659 200.991C728.367 201.979 729.692 203.383 730.636 205.203C731.58 207.023 732.051 209.169 732.051 211.64C732.051 213.505 731.782 215.19 731.243 216.695C730.703 218.201 729.928 219.493 728.917 220.571C727.929 221.649 726.727 222.481 725.311 223.065C723.918 223.626 722.357 223.907 720.627 223.907ZM720.627 220.2C722.087 220.2 723.323 219.863 724.334 219.189C725.367 218.515 726.154 217.538 726.693 216.257C727.255 214.977 727.535 213.449 727.535 211.674C727.535 208.978 726.929 206.888 725.716 205.406C724.525 203.923 722.829 203.181 720.627 203.181C719.189 203.181 717.953 203.518 716.92 204.192C715.886 204.844 715.089 205.81 714.527 207.091C713.988 208.349 713.718 209.877 713.718 211.674C713.718 214.348 714.325 216.437 715.538 217.942C716.751 219.448 718.447 220.2 720.627 220.2ZM747.744 223.84C747.047 223.84 746.508 223.649 746.126 223.267C745.767 222.863 745.587 222.312 745.587 221.616V201.766C745.587 201.047 745.767 200.496 746.126 200.114C746.508 199.733 747.047 199.542 747.744 199.542C748.44 199.542 748.968 199.733 749.328 200.114C749.71 200.496 749.901 201.047 749.901 201.766V221.616C749.901 222.312 749.721 222.863 749.362 223.267C749.002 223.649 748.463 223.84 747.744 223.84ZM757.12 223.84C756.469 223.84 755.963 223.66 755.604 223.301C755.267 222.941 755.098 222.424 755.098 221.75V201.698C755.098 201.002 755.267 200.474 755.604 200.114C755.963 199.733 756.424 199.542 756.986 199.542C757.502 199.542 757.884 199.643 758.131 199.845C758.401 200.025 758.716 200.339 759.075 200.789L771.982 217.538H771.106V201.597C771.106 200.946 771.275 200.44 771.612 200.081C771.971 199.721 772.477 199.542 773.128 199.542C773.78 199.542 774.274 199.721 774.611 200.081C774.948 200.44 775.117 200.946 775.117 201.597V221.818C775.117 222.447 774.959 222.941 774.645 223.301C774.33 223.66 773.903 223.84 773.364 223.84C772.847 223.84 772.432 223.739 772.117 223.537C771.825 223.334 771.499 223.009 771.14 222.559L758.266 205.81H759.109V221.75C759.109 222.424 758.94 222.941 758.603 223.301C758.266 223.66 757.772 223.84 757.12 223.84ZM782.532 223.84C781.836 223.84 781.285 223.649 780.881 223.267C780.499 222.863 780.308 222.29 780.308 221.548V202.103C780.308 201.361 780.499 200.8 780.881 200.418C781.285 200.013 781.858 199.811 782.6 199.811H794.361C794.946 199.811 795.384 199.957 795.676 200.249C795.968 200.541 796.114 200.957 796.114 201.496C796.114 202.058 795.968 202.496 795.676 202.811C795.384 203.103 794.946 203.249 794.361 203.249H784.622V209.955H793.654C794.215 209.955 794.642 210.101 794.934 210.393C795.249 210.685 795.406 211.101 795.406 211.64C795.406 212.202 795.249 212.64 794.934 212.955C794.642 213.247 794.215 213.393 793.654 213.393H784.622V221.548C784.622 223.076 783.925 223.84 782.532 223.84ZM797.625 223.84C797.086 223.84 796.648 223.716 796.311 223.469C795.996 223.222 795.805 222.896 795.738 222.492C795.67 222.065 795.749 221.593 795.974 221.076L804.871 201.361C805.163 200.71 805.511 200.249 805.915 199.98C806.342 199.688 806.825 199.542 807.364 199.542C807.881 199.542 808.342 199.688 808.746 199.98C809.173 200.249 809.533 200.71 809.825 201.361L818.755 221.076C819.002 221.593 819.092 222.065 819.025 222.492C818.958 222.919 818.767 223.256 818.452 223.503C818.137 223.728 817.722 223.84 817.205 223.84C816.576 223.84 816.082 223.694 815.722 223.402C815.385 223.087 815.082 222.615 814.812 221.986L812.622 216.898L814.442 218.077H800.22L802.04 216.898L799.883 221.986C799.591 222.638 799.287 223.11 798.973 223.402C798.658 223.694 798.209 223.84 797.625 223.84ZM807.297 204.496L802.579 215.718L801.703 214.64H812.959L812.116 215.718L807.364 204.496H807.297ZM824.489 223.84C823.838 223.84 823.332 223.66 822.973 223.301C822.636 222.941 822.467 222.424 822.467 221.75V201.698C822.467 201.002 822.636 200.474 822.973 200.114C823.332 199.733 823.793 199.542 824.354 199.542C824.871 199.542 825.253 199.643 825.5 199.845C825.77 200.025 826.084 200.339 826.444 200.789L839.351 217.538H838.475V201.597C838.475 200.946 838.644 200.44 838.981 200.081C839.34 199.721 839.846 199.542 840.497 199.542C841.149 199.542 841.643 199.721 841.98 200.081C842.317 200.44 842.485 200.946 842.485 201.597V221.818C842.485 222.447 842.328 222.941 842.014 223.301C841.699 223.66 841.272 223.84 840.733 223.84C840.216 223.84 839.801 223.739 839.486 223.537C839.194 223.334 838.868 223.009 838.509 222.559L825.635 205.81H826.478V221.75C826.478 222.424 826.309 222.941 825.972 223.301C825.635 223.66 825.141 223.84 824.489 223.84ZM855.563 223.84C854.867 223.84 854.327 223.649 853.945 223.267C853.586 222.863 853.406 222.312 853.406 221.616V203.417H846.834C846.25 203.417 845.79 203.26 845.453 202.945C845.138 202.608 844.981 202.159 844.981 201.597C844.981 201.013 845.138 200.575 845.453 200.283C845.79 199.968 846.25 199.811 846.834 199.811H864.292C864.876 199.811 865.325 199.968 865.64 200.283C865.977 200.575 866.145 201.013 866.145 201.597C866.145 202.159 865.977 202.608 865.64 202.945C865.325 203.26 864.876 203.417 864.292 203.417H857.72V221.616C857.72 222.312 857.54 222.863 857.181 223.267C856.821 223.649 856.282 223.84 855.563 223.84ZM870.765 223.84C870.069 223.84 869.53 223.649 869.148 223.267C868.788 222.863 868.608 222.312 868.608 221.616V201.766C868.608 201.047 868.788 200.496 869.148 200.114C869.53 199.733 870.069 199.542 870.765 199.542C871.462 199.542 871.99 199.733 872.349 200.114C872.731 200.496 872.922 201.047 872.922 201.766V221.616C872.922 222.312 872.742 222.863 872.383 223.267C872.023 223.649 871.484 223.84 870.765 223.84ZM880.31 223.57C879.614 223.57 879.075 223.379 878.693 222.997C878.311 222.593 878.12 222.043 878.12 221.346V201.901C878.12 201.182 878.299 200.642 878.659 200.283C879.041 199.901 879.58 199.71 880.277 199.71C880.973 199.71 881.501 199.901 881.86 200.283C882.242 200.642 882.433 201.182 882.433 201.901V219.897H892.207C892.813 219.897 893.274 220.054 893.588 220.369C893.925 220.683 894.094 221.133 894.094 221.717C894.094 222.301 893.925 222.761 893.588 223.099C893.274 223.413 892.813 223.57 892.207 223.57H880.31Z" fill="#4A7860"/>
</svg>
