<svg width="903" height="541" viewBox="0 0 903 541" fill="none" xmlns="http://www.w3.org/2000/svg">
<path d="M778.083 442.884C779.028 442.197 780.004 441.509 781.02 440.79C784.466 438.351 789.279 438.932 791.876 442.261C795.653 447.1 799.894 452.583 802.328 455.736C803.504 457.258 803.493 459.439 802.133 460.799C788.881 472.578 774.402 483.131 757.224 488.039C729.984 495.646 706.67 487.793 687.528 467.179C679.43 458.59 672.804 448.774 666.178 439.203C658.571 428.651 649.981 422.761 637.957 421.289C637.205 421.22 636.034 421.171 634.735 421.135C630.538 421.02 627.116 424.404 627.048 428.603C626.873 439.336 626.482 459.178 625.816 472.595C625.632 476.291 622.769 479.237 619.07 479.334C613.969 479.467 607.932 479.361 603.312 479.227C599.213 479.109 596 475.748 596.008 471.648C596.058 447.039 596.199 366.588 595.992 327.789C595.992 326.155 595.992 323.458 595.992 320.866C595.992 316.874 599.035 313.564 603.023 313.376C617.06 312.712 648.492 312.197 663.479 319.691C682.62 329.016 694.4 344.967 697.345 366.318C699.308 379.324 694.645 390.613 685.565 400.184C685.069 400.624 684.277 401.226 683.346 401.894C679.315 404.784 678.707 410.594 682.214 414.101C687.141 419.029 691.85 424.102 695.872 429.632C705.443 442.884 716.241 457.609 733.665 460.063C750.352 462.271 765.322 451.964 778.083 442.884ZM655.135 389.631C664.951 383.251 672.313 363.864 661.515 350.366C655.716 342.081 641.525 340.621 632.918 340.547C628.953 340.512 625.959 343.832 625.994 347.798L626.35 388.101C626.389 392.522 630.149 395.977 634.529 395.373C641.269 394.445 650.484 392.684 655.135 389.631Z" fill="#4A7860"/>
<path d="M798.571 311.394C801.628 311.345 804.384 313.146 805.599 315.951C825.308 361.46 859.071 439.394 871.357 467.751C873.551 472.815 869.839 478.469 864.32 478.469H852.262C849.236 478.469 846.501 476.708 845.256 473.95C840.785 464.051 829.862 440.1 821.93 424.63C820.637 422.108 818.035 420.553 815.201 420.553C797.478 420.553 771.67 420.553 760.725 420.553C757.571 420.553 754.748 422.48 753.559 425.4C752.647 427.64 751.46 430.517 750.101 433.724C749.47 435.213 748.381 436.489 746.941 437.225C735.212 443.224 727.172 439.085 723.149 435.708C721.088 433.979 720.853 431.082 721.974 428.636L773.423 316.364C774.626 313.738 777.199 312.011 780.085 311.908C784.827 311.74 792.32 311.496 798.571 311.394ZM772.756 380.731C770.428 385.811 774.135 391.583 779.723 391.53C784.916 391.481 791.107 391.394 796.815 391.241C801.854 391.106 805.229 386.17 803.514 381.429C801.169 374.948 798.378 367.59 795.897 361.155C793.471 354.861 784.718 354.632 781.908 360.764L772.756 380.731Z" fill="#C47A5A"/>
<path d="M264.499 320.326C269.736 320.291 273.884 324.237 273.888 329.474C273.892 334.079 273.834 339.156 273.714 341.683C272.317 377.072 273.947 416.186 263.004 449.479C252.76 481.143 218.07 491.387 190.597 482.54C160.796 475.322 147.525 443.426 145.197 419.212C141.239 392.205 139.376 352.626 141.472 324.454C141.629 323.352 157.979 323.315 168.543 323.406C173.598 323.45 177.553 327.24 177.542 332.295C177.49 356.26 175.707 418.534 184.776 439.235C194.555 461.586 222.261 459.025 230.176 438.071C236.695 420.376 236.695 403.613 237.859 385.919C238.794 372.081 239.429 347.28 239.522 330.815C239.554 325.128 244.129 320.465 249.816 320.426L264.499 320.326Z" fill="#4A7860"/>
<path d="M484.153 503.25C492.495 503.923 506.442 502.531 517.341 501.135C526.368 499.979 534.028 501.78 536.254 510.604C538.45 519.31 534.402 532.011 525.627 533.915C483.401 543.075 439.286 533.256 405.133 507.422C384.028 491.716 367.095 473.556 345.99 457.85C345.661 457.6 345.336 457.345 345.014 457.088C337.499 451.086 330.223 456.979 330.069 466.597C330.062 466.996 330.056 467.396 330.048 467.795C329.886 476.722 322.402 483.675 313.479 483.364C304.749 483.06 297.706 476.024 297.501 467.29C296.458 422.95 296.022 378.861 297.421 334.533C297.759 323.814 306.439 315.184 317.164 315.152C336.615 315.095 355.536 316.445 374.457 323.123C385.009 326.804 393.353 333.184 400.47 342.51C415.685 361.652 416.912 382.756 406.851 404.597C404.642 409.26 401.452 413.187 398.261 417.113C394.58 421.285 391.145 425.457 386.727 428.893C385.991 429.383 377.157 436.009 376.666 435.519C376.666 435.519 406.36 464.722 408.568 466.685C411.513 469.139 414.213 471.348 417.158 473.556C425.011 480.182 433.354 485.581 441.944 490.735C455.441 498.342 469.429 502.023 484.153 503.25ZM358.26 412.941C366.604 409.015 372.985 404.597 377.647 397.481C382.555 390.364 386.727 383.738 381.819 368.032C378.179 356.201 364.952 348.824 347.848 346.104C337.231 344.415 328.451 353.303 328.41 364.053C328.367 375.26 328.629 386.441 329.007 397.645C329.392 409.034 339.24 418.392 350.291 415.614C353.095 414.909 355.786 414.033 358.26 412.941Z" fill="#C47A5A"/>
<path d="M551.883 340.058C564.644 355.518 571.515 373.433 572.497 393.802C572.742 425.704 562.681 452.208 537.158 470.368C506.483 492.209 466.727 485.583 443.414 454.662C410.775 411.471 425.499 347.175 467.954 323.861C495.93 308.401 530.778 314.781 551.883 340.058ZM529.796 435.52C545.993 415.643 546.484 384.722 531.023 364.353C515.317 343.493 488.323 341.776 470.654 360.426C459.61 372.206 455.193 386.685 455.929 402.882C456.666 413.679 459.12 422.514 464.518 430.858C479.979 455.889 511.391 458.343 529.796 435.52Z" fill="#F5F2ED"/>
<path d="M76.1571 390.273C74.5725 385.665 68.0522 385.676 66.4824 390.289L59.1242 411.91C57.747 415.957 61.7338 419.99 65.9726 419.436C67.9954 419.171 70.0139 419.039 72.0159 419.039C73.6524 419.039 75.3021 419.132 76.9563 419.314C81.1319 419.773 84.9367 415.802 83.5706 411.829L76.1571 390.273ZM77.8285 322.818C79.9552 322.818 81.8597 324.135 82.6113 326.124L140.22 478.624C141.483 481.968 139.012 485.543 135.437 485.543H112.463C110.274 485.543 108.329 484.15 107.623 482.078L99.6869 458.765C99.3795 457.862 98.8302 457.057 98.0715 456.479C90.9983 451.091 82.6209 448.397 72.7349 448.397C61.1141 448.397 51.482 451.711 43.8384 458.446C43.2123 458.998 42.7567 459.714 42.4863 460.503L35.0946 482.087C34.3866 484.154 32.443 485.543 30.2578 485.543H7.3915C3.81799 485.543 1.34693 481.971 2.6076 478.627L60.1038 326.127C60.8545 324.136 62.7598 322.818 64.8877 322.818H77.8285Z" fill="#F5F2ED"/>
<path d="M560.752 535.149C560.055 535.149 559.516 534.958 559.134 534.576C558.775 534.171 558.595 533.621 558.595 532.924V513.074C558.595 512.355 558.775 511.805 559.134 511.423C559.516 511.041 560.055 510.85 560.752 510.85C561.448 510.85 561.976 511.041 562.336 511.423C562.718 511.805 562.909 512.355 562.909 513.074V532.924C562.909 533.621 562.729 534.171 562.369 534.576C562.01 534.958 561.471 535.149 560.752 535.149ZM570.128 535.149C569.477 535.149 568.971 534.969 568.612 534.609C568.275 534.25 568.106 533.733 568.106 533.059V513.007C568.106 512.311 568.275 511.783 568.612 511.423C568.971 511.041 569.432 510.85 569.993 510.85C570.51 510.85 570.892 510.951 571.139 511.153C571.409 511.333 571.723 511.648 572.083 512.097L584.99 528.846H584.114V512.906C584.114 512.254 584.283 511.749 584.62 511.389C584.979 511.03 585.485 510.85 586.136 510.85C586.788 510.85 587.282 511.03 587.619 511.389C587.956 511.749 588.125 512.254 588.125 512.906V533.126C588.125 533.756 587.967 534.25 587.653 534.609C587.338 534.969 586.911 535.149 586.372 535.149C585.855 535.149 585.44 535.047 585.125 534.845C584.833 534.643 584.507 534.317 584.148 533.868L571.274 517.119H572.117V533.059C572.117 533.733 571.948 534.25 571.611 534.609C571.274 534.969 570.78 535.149 570.128 535.149ZM601.505 535.216C600.517 535.216 599.528 535.137 598.54 534.98C597.551 534.845 596.619 534.632 595.743 534.34C594.866 534.025 594.08 533.643 593.383 533.194C592.979 532.924 592.698 532.598 592.541 532.217C592.384 531.835 592.328 531.464 592.372 531.104C592.44 530.722 592.586 530.397 592.811 530.127C593.058 529.835 593.361 529.655 593.72 529.588C594.08 529.52 594.473 529.622 594.9 529.891C595.889 530.475 596.933 530.902 598.034 531.172C599.135 531.441 600.292 531.576 601.505 531.576C603.28 531.576 604.572 531.284 605.381 530.7C606.19 530.093 606.594 529.318 606.594 528.375C606.594 527.588 606.302 526.97 605.718 526.521C605.156 526.072 604.179 525.701 602.786 525.409L599.079 524.634C596.945 524.184 595.349 523.432 594.293 522.376C593.26 521.297 592.743 519.882 592.743 518.13C592.743 517.029 592.968 516.029 593.417 515.13C593.867 514.232 594.496 513.456 595.304 512.805C596.136 512.153 597.113 511.659 598.236 511.322C599.382 510.963 600.64 510.783 602.011 510.783C603.359 510.783 604.64 510.951 605.853 511.288C607.066 511.625 608.156 512.12 609.122 512.771C609.481 513.018 609.717 513.322 609.83 513.681C609.964 514.041 609.998 514.4 609.931 514.759C609.863 515.096 609.706 515.389 609.459 515.636C609.212 515.883 608.897 516.029 608.515 516.074C608.156 516.119 607.74 516.006 607.268 515.737C606.437 515.265 605.594 514.928 604.741 514.726C603.887 514.524 602.966 514.422 601.977 514.422C600.944 514.422 600.056 514.569 599.315 514.861C598.573 515.153 598.001 515.568 597.596 516.108C597.214 516.624 597.023 517.242 597.023 517.961C597.023 518.77 597.293 519.421 597.832 519.916C598.371 520.388 599.292 520.758 600.595 521.028L604.269 521.803C606.493 522.275 608.144 523.016 609.223 524.027C610.324 525.038 610.874 526.386 610.874 528.071C610.874 529.15 610.65 530.127 610.2 531.003C609.773 531.88 609.144 532.632 608.313 533.261C607.504 533.89 606.527 534.373 605.381 534.71C604.235 535.047 602.943 535.216 601.505 535.216ZM621.969 535.149C621.272 535.149 620.733 534.958 620.351 534.576C619.992 534.171 619.812 533.621 619.812 532.924V514.726H613.24C612.656 514.726 612.196 514.569 611.859 514.254C611.544 513.917 611.387 513.468 611.387 512.906C611.387 512.322 611.544 511.884 611.859 511.592C612.196 511.277 612.656 511.12 613.24 511.12H630.697C631.282 511.12 631.731 511.277 632.046 511.592C632.383 511.884 632.551 512.322 632.551 512.906C632.551 513.468 632.383 513.917 632.046 514.254C631.731 514.569 631.282 514.726 630.697 514.726H624.126V532.924C624.126 533.621 623.946 534.171 623.587 534.576C623.227 534.958 622.688 535.149 621.969 535.149ZM637.171 535.149C636.475 535.149 635.935 534.958 635.554 534.576C635.194 534.171 635.014 533.621 635.014 532.924V513.074C635.014 512.355 635.194 511.805 635.554 511.423C635.935 511.041 636.475 510.85 637.171 510.85C637.868 510.85 638.396 511.041 638.755 511.423C639.137 511.805 639.328 512.355 639.328 513.074V532.924C639.328 533.621 639.148 534.171 638.789 534.576C638.429 534.958 637.89 535.149 637.171 535.149ZM652.412 535.149C651.715 535.149 651.176 534.958 650.794 534.576C650.435 534.171 650.255 533.621 650.255 532.924V514.726H643.683C643.099 514.726 642.638 514.569 642.301 514.254C641.987 513.917 641.83 513.468 641.83 512.906C641.83 512.322 641.987 511.884 642.301 511.592C642.638 511.277 643.099 511.12 643.683 511.12H661.14C661.724 511.12 662.174 511.277 662.488 511.592C662.825 511.884 662.994 512.322 662.994 512.906C662.994 513.468 662.825 513.917 662.488 514.254C662.174 514.569 661.724 514.726 661.14 514.726H654.568V532.924C654.568 533.621 654.389 534.171 654.029 534.576C653.67 534.958 653.131 535.149 652.412 535.149ZM675.331 535.216C673.691 535.216 672.242 535.002 670.984 534.576C669.748 534.149 668.704 533.52 667.85 532.688C666.996 531.835 666.356 530.779 665.929 529.52C665.502 528.262 665.289 526.802 665.289 525.139V513.041C665.289 512.299 665.468 511.749 665.828 511.389C666.21 511.03 666.749 510.85 667.445 510.85C668.142 510.85 668.67 511.03 669.029 511.389C669.411 511.749 669.602 512.299 669.602 513.041V525.106C669.602 527.24 670.085 528.846 671.051 529.925C672.04 530.981 673.467 531.509 675.331 531.509C677.196 531.509 678.612 530.981 679.578 529.925C680.544 528.846 681.027 527.24 681.027 525.106V513.041C681.027 512.299 681.207 511.749 681.566 511.389C681.948 511.03 682.487 510.85 683.184 510.85C683.858 510.85 684.374 511.03 684.734 511.389C685.116 511.749 685.307 512.299 685.307 513.041V525.139C685.307 527.341 684.925 529.195 684.161 530.7C683.42 532.205 682.307 533.34 680.825 534.104C679.342 534.845 677.511 535.216 675.331 535.216ZM698.224 535.149C697.527 535.149 696.988 534.958 696.606 534.576C696.247 534.171 696.067 533.621 696.067 532.924V514.726H689.495C688.911 514.726 688.451 514.569 688.113 514.254C687.799 513.917 687.642 513.468 687.642 512.906C687.642 512.322 687.799 511.884 688.113 511.592C688.451 511.277 688.911 511.12 689.495 511.12H706.952C707.536 511.12 707.986 511.277 708.3 511.592C708.637 511.884 708.806 512.322 708.806 512.906C708.806 513.468 708.637 513.917 708.3 514.254C707.986 514.569 707.536 514.726 706.952 514.726H700.381V532.924C700.381 533.621 700.201 534.171 699.841 534.576C699.482 534.958 698.943 535.149 698.224 535.149ZM720.471 535.216C718.179 535.216 716.168 534.71 714.438 533.699C712.731 532.688 711.405 531.273 710.461 529.453C709.518 527.611 709.046 525.454 709.046 522.982C709.046 521.118 709.316 519.444 709.855 517.961C710.394 516.456 711.158 515.175 712.146 514.119C713.157 513.041 714.359 512.221 715.752 511.659C717.168 511.075 718.741 510.783 720.471 510.783C722.785 510.783 724.795 511.288 726.503 512.299C728.211 513.288 729.536 514.692 730.48 516.512C731.423 518.332 731.895 520.477 731.895 522.949C731.895 524.814 731.626 526.499 731.086 528.004C730.547 529.509 729.772 530.801 728.761 531.88C727.772 532.958 726.57 533.789 725.155 534.373C723.762 534.935 722.201 535.216 720.471 535.216ZM720.471 531.509C721.931 531.509 723.167 531.172 724.178 530.498C725.211 529.824 725.997 528.846 726.537 527.566C727.098 526.285 727.379 524.757 727.379 522.982C727.379 520.286 726.773 518.197 725.559 516.714C724.369 515.231 722.672 514.49 720.471 514.49C719.033 514.49 717.797 514.827 716.763 515.501C715.73 516.152 714.932 517.119 714.371 518.399C713.831 519.657 713.562 521.185 713.562 522.982C713.562 525.656 714.168 527.746 715.382 529.251C716.595 530.756 718.291 531.509 720.471 531.509ZM747.588 535.149C746.891 535.149 746.352 534.958 745.97 534.576C745.611 534.171 745.431 533.621 745.431 532.924V513.074C745.431 512.355 745.611 511.805 745.97 511.423C746.352 511.041 746.891 510.85 747.588 510.85C748.284 510.85 748.812 511.041 749.172 511.423C749.554 511.805 749.744 512.355 749.744 513.074V532.924C749.744 533.621 749.565 534.171 749.205 534.576C748.846 534.958 748.307 535.149 747.588 535.149ZM756.964 535.149C756.313 535.149 755.807 534.969 755.448 534.609C755.111 534.25 754.942 533.733 754.942 533.059V513.007C754.942 512.311 755.111 511.783 755.448 511.423C755.807 511.041 756.268 510.85 756.829 510.85C757.346 510.85 757.728 510.951 757.975 511.153C758.245 511.333 758.559 511.648 758.919 512.097L771.826 528.846H770.95V512.906C770.95 512.254 771.118 511.749 771.456 511.389C771.815 511.03 772.32 510.85 772.972 510.85C773.624 510.85 774.118 511.03 774.455 511.389C774.792 511.749 774.96 512.254 774.96 512.906V533.126C774.96 533.756 774.803 534.25 774.489 534.609C774.174 534.969 773.747 535.149 773.208 535.149C772.691 535.149 772.276 535.047 771.961 534.845C771.669 534.643 771.343 534.317 770.984 533.868L758.11 517.119H758.952V533.059C758.952 533.733 758.784 534.25 758.447 534.609C758.11 534.969 757.616 535.149 756.964 535.149ZM782.376 535.149C781.68 535.149 781.129 534.958 780.725 534.576C780.343 534.171 780.152 533.598 780.152 532.857V513.411C780.152 512.67 780.343 512.108 780.725 511.726C781.129 511.322 781.702 511.12 782.444 511.12H794.205C794.789 511.12 795.227 511.266 795.52 511.558C795.812 511.85 795.958 512.266 795.958 512.805C795.958 513.367 795.812 513.805 795.52 514.119C795.227 514.411 794.789 514.557 794.205 514.557H784.466V521.264H793.497C794.059 521.264 794.486 521.41 794.778 521.702C795.093 521.994 795.25 522.41 795.25 522.949C795.25 523.51 795.093 523.949 794.778 524.263C794.486 524.555 794.059 524.701 793.497 524.701H784.466V532.857C784.466 534.385 783.769 535.149 782.376 535.149ZM797.469 535.149C796.929 535.149 796.491 535.025 796.154 534.778C795.84 534.531 795.649 534.205 795.581 533.8C795.514 533.374 795.593 532.902 795.817 532.385L804.714 512.67C805.006 512.018 805.355 511.558 805.759 511.288C806.186 510.996 806.669 510.85 807.208 510.85C807.725 510.85 808.186 510.996 808.59 511.288C809.017 511.558 809.376 512.018 809.668 512.67L818.599 532.385C818.846 532.902 818.936 533.374 818.869 533.8C818.801 534.227 818.61 534.564 818.296 534.812C817.981 535.036 817.566 535.149 817.049 535.149C816.42 535.149 815.925 535.002 815.566 534.71C815.229 534.396 814.926 533.924 814.656 533.295L812.466 528.206L814.285 529.386H800.064L801.883 528.206L799.727 533.295C799.435 533.947 799.131 534.418 798.817 534.71C798.502 535.002 798.053 535.149 797.469 535.149ZM807.141 515.804L802.423 527.027L801.546 525.948H812.803L811.96 527.027L807.208 515.804H807.141ZM824.333 535.149C823.681 535.149 823.176 534.969 822.816 534.609C822.479 534.25 822.311 533.733 822.311 533.059V513.007C822.311 512.311 822.479 511.783 822.816 511.423C823.176 511.041 823.636 510.85 824.198 510.85C824.715 510.85 825.097 510.951 825.344 511.153C825.614 511.333 825.928 511.648 826.288 512.097L839.195 528.846H838.319V512.906C838.319 512.254 838.487 511.749 838.824 511.389C839.184 511.03 839.689 510.85 840.341 510.85C840.992 510.85 841.487 511.03 841.824 511.389C842.161 511.749 842.329 512.254 842.329 512.906V533.126C842.329 533.756 842.172 534.25 841.857 534.609C841.543 534.969 841.116 535.149 840.577 535.149C840.06 535.149 839.644 535.047 839.33 534.845C839.038 534.643 838.712 534.317 838.353 533.868L825.479 517.119H826.321V533.059C826.321 533.733 826.153 534.25 825.816 534.609C825.479 534.969 824.985 535.149 824.333 535.149ZM855.407 535.149C854.71 535.149 854.171 534.958 853.789 534.576C853.43 534.171 853.25 533.621 853.25 532.924V514.726H846.678C846.094 514.726 845.633 514.569 845.296 514.254C844.982 513.917 844.825 513.468 844.825 512.906C844.825 512.322 844.982 511.884 845.296 511.592C845.633 511.277 846.094 511.12 846.678 511.12H864.135C864.719 511.12 865.169 511.277 865.483 511.592C865.82 511.884 865.989 512.322 865.989 512.906C865.989 513.468 865.82 513.917 865.483 514.254C865.169 514.569 864.719 514.726 864.135 514.726H857.564V532.924C857.564 533.621 857.384 534.171 857.024 534.576C856.665 534.958 856.126 535.149 855.407 535.149ZM870.609 535.149C869.913 535.149 869.373 534.958 868.991 534.576C868.632 534.171 868.452 533.621 868.452 532.924V513.074C868.452 512.355 868.632 511.805 868.991 511.423C869.373 511.041 869.913 510.85 870.609 510.85C871.305 510.85 871.833 511.041 872.193 511.423C872.575 511.805 872.766 512.355 872.766 513.074V532.924C872.766 533.621 872.586 534.171 872.227 534.576C871.867 534.958 871.328 535.149 870.609 535.149ZM880.154 534.879C879.458 534.879 878.918 534.688 878.536 534.306C878.154 533.902 877.963 533.351 877.963 532.655V513.209C877.963 512.49 878.143 511.951 878.503 511.592C878.885 511.21 879.424 511.019 880.12 511.019C880.817 511.019 881.345 511.21 881.704 511.592C882.086 511.951 882.277 512.49 882.277 513.209V531.206H892.05C892.657 531.206 893.118 531.363 893.432 531.677C893.769 531.992 893.938 532.441 893.938 533.025C893.938 533.61 893.769 534.07 893.432 534.407C893.118 534.722 892.657 534.879 892.05 534.879H880.154Z" fill="#F5F2ED"/>
<path d="M258.453 237.158C258.453 237.158 302.032 119 426.956 119C551.881 119 592.554 237.158 592.554 237.158H258.453Z" fill="#F5F2ED"/>
<path d="M594.546 231.793C594.976 233.025 595.59 234.682 596.027 235.962L597.758 240.751L592.554 240.831C577.519 240.72 564.723 243.684 545.797 243.22C525.101 242.712 522.001 240.807 498.299 241.235C474.597 241.664 450.882 240.361 440.329 241.144C429.776 241.927 428.662 239.559 413.675 240.085C398.69 240.611 389.607 240.302 376.501 239.532C363.394 238.763 323.128 238.106 308.486 239.051C293.844 239.996 277.143 238.356 267.1 237.967C263.972 237.846 261.51 237.68 259.622 237.507C258.823 237.434 258.453 237.281 258.453 237.13C258.453 237.13 258.453 237.13 258.453 237.13C258.453 236.942 259.026 236.757 260.054 236.733C265.042 236.618 272.497 236.313 281.304 235.631C297.726 234.359 299.52 235.765 321.695 235.111C343.869 234.457 357.192 233.151 383.283 233.996C409.374 234.841 415.367 231.305 452.197 233.309C489.026 235.312 492.902 231.614 529.603 231.123C549.554 230.855 572.349 231.336 592.554 231.804L587.492 238.9C582.22 223.806 574.733 210.567 569.23 202.364C557.281 184.467 537.63 162.264 511.597 146.293C489.12 131.968 457.139 123.852 426.956 123.88C422.408 123.831 418.145 123.905 413.779 124.1C379.49 123.862 334.569 144.792 317.704 159.722C300.363 173.822 296.466 178.038 283.705 195.445C276.472 205.701 267.464 219.996 260.73 233.065C257.485 239.651 257.394 237.857 260.087 230.903C264.15 220.821 268.959 213.267 271.18 208.042C275.714 197.727 277.911 193.197 287.608 182.699C297.466 172.407 300.768 166.288 307.083 160.781C314.006 156.098 312.403 153.959 349.133 132.751C386.411 114.264 411.115 114.572 426.956 113.848C427.418 113.842 427.872 113.837 428.321 113.833C444.553 113.182 478.342 118.957 502.214 130.586C527.635 139.74 566.555 178.162 577.545 196.723C589.594 214.64 588.216 215.595 594.546 231.793Z" fill="#F5F2ED"/>
<path d="M181.039 101.09L215.471 70.1691L279.56 141.602L274.641 146.019L181.039 101.09Z" fill="#F5F2ED"/>
<path d="M278.851 137.099C279.717 138.285 280.716 139.288 281.794 140.225L283.147 141.637L281.584 143.13C280.191 144.723 279.002 146.432 277.517 148.19L275.504 150.113L272.622 148.828C270.856 148.232 269.025 147.511 267.12 146.491C260.945 143.185 260.679 141.774 253.244 138.494C245.809 135.214 238.994 131.065 235.47 129.901C231.947 128.737 232.457 127.388 227.665 125.441C222.872 123.495 220.194 122.001 216.445 119.684C212.696 117.366 200.564 111.1 195.726 109.414C190.888 107.729 186.349 104.445 183.404 102.77C182.487 102.248 181.79 101.802 181.272 101.437C181.053 101.283 180.995 101.152 181.049 101.076C181.049 101.076 181.049 101.076 181.049 101.076C181.117 100.982 181.359 100.974 181.684 101.113C183.257 101.791 185.657 102.738 188.608 103.695C194.11 105.479 194.155 106.447 201.202 109.39C208.248 112.332 212.811 113.642 220.521 117.912C228.231 122.182 231.344 121.295 241.936 127.728C252.528 134.162 255.049 132.882 266.5 138.047C269.825 139.547 273.322 141.273 276.779 143.046L271.598 143.72C273.304 142.273 275.026 140.839 276.71 139.449L276.414 143.541C272.309 138.526 268.627 133.886 266.063 131.116C261.293 125.966 254.773 119.12 248.424 111.565C242.074 104.011 233.199 95.3243 226.378 86.8695C222.585 82.1675 217.895 76.3975 213.73 71.2418L217.048 71.36C212.719 74.8938 208.797 78.0773 206.179 80.1512C200.282 84.8232 198.851 85.9671 193.768 90.913C190.847 93.7559 186.514 97.4399 182.472 100.263C180.438 101.684 180.502 101.062 182.138 99.3215C184.532 96.7768 186.853 94.9568 187.782 93.416C189.638 90.3372 190.463 89.0553 194.382 86.3578C198.3 83.6603 198.783 81.3597 200.908 79.6667C203.032 77.9736 203.666 78.5061 213.294 69.0108C213.388 68.9188 213.481 68.8271 213.573 68.7359L215.588 66.8122L217.566 68.8781C226.734 78.1392 231.627 83.3453 235.053 86.9305C238.512 90.5508 244.813 98.6785 250.46 104.573C256.106 110.468 266.906 122.871 271.722 127.586C276.538 132.3 275.724 132.818 278.851 137.099Z" fill="#F5F2ED"/>
<path d="M310.012 13.1875L355.127 2.87825L376.463 96.4453L370.018 97.9181L310.012 13.1875Z" fill="#F5F2ED"/>
<path d="M378.029 92.1646C378.211 93.6219 378.597 94.9836 379.084 96.3268L379.581 98.218L377.49 98.7638C375.498 99.4804 373.629 100.396 371.478 101.213L368.784 101.916L366.888 99.393C365.634 98.0145 364.383 96.4944 363.213 94.6778C359.421 88.7897 359.874 87.427 354.967 80.9491C350.061 74.4715 346.118 67.5349 343.603 64.8063C341.088 62.0778 342.189 61.1458 338.945 57.117C335.701 53.0884 334.085 50.4817 331.933 46.6352C329.781 42.7885 322.219 31.4196 318.808 27.5969C315.397 23.7741 313.024 18.6994 311.263 15.8045C310.715 14.9028 310.322 14.1747 310.047 13.6045C309.93 13.363 309.943 13.22 310.027 13.1803C310.027 13.1802 310.027 13.1802 310.027 13.1802C310.132 13.1308 310.348 13.2414 310.564 13.5209C311.61 14.8776 313.248 16.8705 315.363 19.14C319.306 23.3717 318.875 24.2402 323.607 30.2341C328.338 36.228 331.69 39.589 336.357 47.0658C341.023 54.5425 344.175 55.2794 350.31 66.0468C356.445 76.8139 359.271 76.9196 366.772 86.9953C368.95 89.921 371.169 93.1285 373.331 96.357L368.473 94.4306C370.668 93.9935 372.869 93.5769 375.016 93.1792L372.771 96.6123C371.618 90.235 370.653 84.3909 369.756 80.7246C368.088 73.9065 365.712 64.7554 363.83 55.068C361.949 45.3807 358.408 33.477 356.551 22.7737C355.519 16.8213 354.222 9.50031 353.084 2.97064L355.927 4.68522C350.426 5.67177 345.453 6.55056 342.157 7.09212C334.732 8.31217 332.926 8.61741 326.081 10.4727C322.147 11.5392 316.57 12.6557 311.666 13.1608C309.198 13.415 309.556 12.9019 311.831 12.1755C315.159 11.1132 318.072 10.6493 319.633 9.75363C322.751 7.96378 324.094 7.24357 328.829 6.78848C333.565 6.33337 335.104 4.55672 337.784 4.10845C340.463 3.66023 340.758 4.43326 353.787 0.808647C353.913 0.77351 354.039 0.738542 354.164 0.703744L356.859 0.000647823L357.585 2.76707C361.102 15.315 362.851 22.2421 364.105 27.0398C365.371 31.8845 366.932 42.0495 369.006 49.9446C371.079 57.8398 374.497 73.9265 376.417 80.3867C378.338 86.8467 377.375 86.9037 378.029 92.1646Z" fill="#F5F2ED"/>
<path d="M671.438 101.09L637.005 70.1691L572.916 141.602L577.835 146.019L671.438 101.09Z" fill="#F5F2ED"/>
<path d="M573.626 137.099C572.76 138.285 571.761 139.288 570.682 140.225L569.33 141.637L570.893 143.13C572.286 144.723 573.475 146.432 574.959 148.19L576.972 150.113L579.855 148.828C581.621 148.232 583.452 147.511 585.357 146.491C591.531 143.185 591.798 141.774 599.233 138.494C606.667 135.214 613.483 131.065 617.006 129.901C620.529 128.737 620.019 127.388 624.812 125.441C629.604 123.495 632.283 122.001 636.032 119.684C639.781 117.366 651.913 111.1 656.751 109.414C661.589 107.729 666.128 104.445 669.073 102.77C669.99 102.248 670.687 101.802 671.204 101.437C671.423 101.283 671.482 101.152 671.428 101.076C671.428 101.076 671.428 101.076 671.427 101.076C671.36 100.982 671.117 100.974 670.793 101.113C669.219 101.791 666.82 102.738 663.869 103.695C658.367 105.479 658.322 106.447 651.275 109.39C644.229 112.332 639.666 113.642 631.956 117.912C624.246 122.182 621.132 121.295 610.54 127.728C599.949 134.162 597.427 132.882 585.977 138.047C582.652 139.547 579.155 141.273 575.697 143.046L580.879 143.72C579.173 142.273 577.451 140.839 575.767 139.449L576.063 143.541C580.168 138.526 583.849 133.886 586.414 131.116C591.183 125.966 597.704 119.12 604.053 111.565C610.402 104.011 619.278 95.3243 626.099 86.8695C629.892 82.1675 634.581 76.3975 638.746 71.2418L635.428 71.36C639.758 74.8938 643.679 78.0773 646.297 80.1512C652.195 84.8232 653.626 85.9671 658.708 90.913C661.63 93.7559 665.962 97.4399 670.004 100.263C672.038 101.684 671.975 101.062 670.338 99.3215C667.945 96.7768 665.624 94.9568 664.695 93.416C662.838 90.3372 662.014 89.0553 658.095 86.3578C654.176 83.6603 653.694 81.3597 651.569 79.6667C649.444 77.9736 648.811 78.5061 639.182 69.0108C639.089 68.9188 638.996 68.8271 638.903 68.7359L636.888 66.8122L634.91 68.8781C625.743 78.1392 620.849 83.3453 617.424 86.9305C613.964 90.5508 607.663 98.6785 602.017 104.573C596.37 110.468 585.57 122.871 580.754 127.586C575.939 132.3 576.753 132.818 573.626 137.099Z" fill="#F5F2ED"/>
<path d="M542.762 13.1875L497.646 2.87825L476.31 96.4453L482.755 97.9181L542.762 13.1875Z" fill="#F5F2ED"/>
<path d="M474.744 92.1646C474.563 93.6219 474.177 94.9836 473.689 96.3268L473.193 98.218L475.283 98.7638C477.276 99.4804 479.144 100.396 481.296 101.213L483.989 101.916L485.885 99.393C487.14 98.0145 488.39 96.4944 489.56 94.6778C493.352 88.7897 492.9 87.427 497.806 80.9491C502.713 74.4715 506.656 67.5349 509.171 64.8063C511.685 62.0778 510.584 61.1458 513.829 57.117C517.073 53.0884 518.689 50.4817 520.84 46.6352C522.992 42.7885 530.555 31.4196 533.965 27.5969C537.376 23.7741 539.75 18.6994 541.51 15.8045C542.059 14.9028 542.451 14.1747 542.727 13.6045C542.843 13.363 542.831 13.22 542.746 13.1803C542.746 13.1802 542.746 13.1802 542.746 13.1802C542.641 13.1308 542.425 13.2414 542.21 13.5209C541.163 14.8776 539.525 16.8705 537.41 19.14C533.467 23.3717 533.898 24.2402 529.167 30.2341C524.436 36.228 521.083 39.589 516.417 47.0658C511.75 54.5425 508.598 55.2794 502.463 66.0468C496.329 76.8139 493.503 76.9196 486.001 86.9953C483.823 89.921 481.604 93.1285 479.443 96.357L484.3 94.4306C482.106 93.9935 479.904 93.5769 477.757 93.1792L480.003 96.6123C481.156 90.235 482.121 84.3909 483.018 80.7246C484.686 73.9065 487.062 64.7554 488.943 55.068C490.825 45.3807 494.366 33.477 496.222 22.7737C497.255 16.8213 498.552 9.50031 499.689 2.97064L496.846 4.68522C502.347 5.67177 507.321 6.55056 510.617 7.09212C518.041 8.31217 519.847 8.61741 526.692 10.4727C530.627 11.5392 536.203 12.6557 541.107 13.1608C543.575 13.415 543.218 12.9019 540.942 12.1755C537.614 11.1132 534.701 10.6493 533.141 9.75363C530.023 7.96378 528.68 7.24357 523.944 6.78848C519.209 6.33337 517.669 4.55672 514.99 4.10845C512.31 3.66023 512.015 4.43326 498.987 0.808647C498.861 0.77351 498.735 0.738542 498.61 0.703744L495.914 0.000647823L495.188 2.76707C491.671 15.315 489.922 22.2421 488.668 27.0398C487.402 31.8845 485.841 42.0495 483.768 49.9446C481.694 57.8398 478.276 73.9265 476.356 80.3867C474.436 86.8467 475.399 86.9037 474.744 92.1646Z" fill="#F5F2ED"/>
<path d="M402.846 188.328C398.513 182.725 394.601 176.436 393.786 169.4C392.971 162.363 396.007 154.472 402.432 151.497C408.035 148.902 414.99 150.648 419.663 154.689C424.335 158.723 426.991 164.666 428.356 170.69C430.522 164.041 433.531 157.664 437.287 151.762C439.297 148.597 442.17 145.235 445.919 145.405C449.234 145.554 451.733 148.474 453.288 151.402C457.642 159.606 457.879 169.542 455.523 178.528C453.01 188.118 444.5 209.579 433.151 211.413C421.632 213.274 408.871 196.105 402.853 188.328H402.846Z" fill="#C9A96E"/>
<path d="M455.151 235.016C466.033 235.693 474.599 232.7 487.862 233.123C501.125 233.546 503.111 235.134 518.301 234.776C533.489 234.419 548.687 235.505 555.45 234.853C562.213 234.2 562.926 236.173 572.53 235.735C582.134 235.297 587.954 235.555 596.353 236.196C604.753 236.837 630.557 237.385 639.94 236.597C649.323 235.809 660.025 237.176 666.461 237.5C668.466 237.601 670.044 237.739 671.253 237.883C671.766 237.944 672.002 238.072 672.003 238.198C672.003 238.198 672.003 238.198 672.003 238.198C672.002 238.355 671.635 238.509 670.977 238.528C667.78 238.625 663.003 238.878 657.359 239.447C646.835 240.507 645.685 239.335 631.475 239.88C617.264 240.425 608.727 241.514 592.007 240.809C575.287 240.105 571.446 243.052 547.844 241.382C524.243 239.712 521.759 242.794 498.239 243.204C474.719 243.613 445.03 241.913 430.852 242.054C416.674 242.195 397.632 242.554 377.533 242.147C357.434 241.741 332.622 242.767 310.436 242.042C288.25 241.316 256.883 240.4 242.392 239.786C227.902 239.171 224.37 239.033 210.422 239.408C202.405 239.624 191.36 239.421 182.031 238.627C177.336 238.228 178.4 237.672 183.126 237.406C190.036 237.017 195.709 237.277 199.27 236.583C206.385 235.194 209.409 234.662 218.391 235.47C227.372 236.278 231.605 234.441 236.84 234.653C242.076 234.864 241.99 235.947 268.613 235.113C295.236 234.278 309.83 234.065 319.912 233.865C329.994 233.665 351.046 234.605 367.477 234.265C383.908 233.926 417.312 234.237 430.777 233.682C444.242 233.126 444.27 234.339 455.151 235.016Z" fill="#F5F2ED"/>
</svg>
