<svg width="896" height="541" viewBox="0 0 896 541" fill="none" xmlns="http://www.w3.org/2000/svg">
<path d="M778.083 442.884C779.028 442.197 780.004 441.509 781.02 440.79C784.466 438.351 789.279 438.932 791.876 442.261C795.653 447.1 799.894 452.583 802.328 455.736C803.504 457.258 803.493 459.439 802.133 460.799C788.881 472.578 774.402 483.131 757.224 488.039C729.984 495.646 706.67 487.793 687.528 467.179C679.43 458.59 672.804 448.774 666.178 439.203C658.571 428.651 649.981 422.761 637.957 421.289C637.205 421.22 636.034 421.171 634.735 421.135C630.538 421.02 627.116 424.404 627.048 428.603C626.873 439.336 626.482 459.178 625.816 472.595C625.632 476.291 622.769 479.237 619.07 479.334C613.969 479.467 607.932 479.361 603.312 479.227C599.213 479.109 596 475.748 596.008 471.648C596.058 447.039 596.199 366.588 595.992 327.789C595.992 326.155 595.992 323.458 595.992 320.866C595.992 316.874 599.035 313.564 603.023 313.376C617.06 312.712 648.492 312.197 663.479 319.691C682.62 329.016 694.4 344.967 697.345 366.318C699.308 379.324 694.645 390.613 685.565 400.184C685.069 400.624 684.277 401.226 683.346 401.894C679.315 404.784 678.707 410.594 682.214 414.101C687.141 419.029 691.85 424.102 695.872 429.632C705.443 442.884 716.241 457.609 733.665 460.063C750.352 462.271 765.322 451.964 778.083 442.884ZM655.135 389.631C664.951 383.251 672.313 363.864 661.515 350.366C655.716 342.081 641.525 340.621 632.918 340.547C628.953 340.512 625.959 343.832 625.994 347.798L626.35 388.101C626.389 392.522 630.149 395.977 634.529 395.373C641.269 394.445 650.484 392.684 655.135 389.631Z" fill="#C9A96E"/>
<path d="M798.571 311.394C801.628 311.345 804.384 313.146 805.599 315.951C825.308 361.46 859.071 439.394 871.357 467.751C873.551 472.815 869.839 478.469 864.32 478.469H852.262C849.236 478.469 846.501 476.708 845.256 473.95C840.785 464.051 829.862 440.1 821.93 424.63C820.637 422.108 818.035 420.553 815.201 420.553C797.478 420.553 771.67 420.553 760.725 420.553C757.571 420.553 754.748 422.48 753.559 425.4C752.647 427.64 751.46 430.517 750.101 433.724C749.47 435.213 748.381 436.489 746.941 437.225C735.212 443.224 727.172 439.085 723.149 435.708C721.088 433.979 720.853 431.082 721.974 428.636L773.423 316.364C774.626 313.738 777.199 312.011 780.085 311.908C784.827 311.74 792.32 311.496 798.571 311.394ZM772.756 380.731C770.428 385.811 774.135 391.583 779.723 391.53C784.916 391.481 791.107 391.394 796.815 391.241C801.854 391.106 805.229 386.17 803.514 381.429C801.169 374.948 798.378 367.59 795.897 361.155C793.471 354.861 784.718 354.632 781.908 360.764L772.756 380.731Z" fill="#A8C4B0"/>
<path d="M264.499 320.326C269.736 320.291 273.884 324.237 273.888 329.474C273.892 334.079 273.834 339.156 273.714 341.683C272.317 377.072 273.947 416.186 263.004 449.479C252.76 481.143 218.07 491.387 190.597 482.54C160.796 475.322 147.525 443.426 145.197 419.212C141.239 392.205 139.376 352.626 141.472 324.454C141.629 323.352 157.979 323.315 168.543 323.406C173.598 323.45 177.553 327.24 177.542 332.295C177.49 356.26 175.707 418.534 184.776 439.235C194.555 461.586 222.261 459.025 230.176 438.071C236.695 420.376 236.695 403.613 237.859 385.919C238.794 372.081 239.429 347.28 239.522 330.815C239.554 325.128 244.129 320.465 249.816 320.426L264.499 320.326Z" fill="#A8C4B0"/>
<path d="M484.153 503.25C492.495 503.923 506.442 502.531 517.341 501.135C526.368 499.979 534.028 501.78 536.254 510.604C538.45 519.31 534.402 532.011 525.627 533.915C483.401 543.075 439.286 533.256 405.133 507.422C384.028 491.716 367.095 473.556 345.99 457.85C345.661 457.6 345.336 457.345 345.014 457.088C337.499 451.086 330.223 456.979 330.069 466.597C330.062 466.996 330.056 467.396 330.048 467.795C329.886 476.722 322.402 483.675 313.479 483.364C304.749 483.06 297.706 476.024 297.501 467.29C296.458 422.95 296.022 378.861 297.421 334.533C297.759 323.814 306.439 315.184 317.164 315.152C336.615 315.095 355.536 316.445 374.457 323.123C385.009 326.804 393.353 333.184 400.47 342.51C415.685 361.652 416.912 382.756 406.851 404.597C404.642 409.26 401.452 413.187 398.261 417.113C394.58 421.285 391.145 425.457 386.727 428.893C385.991 429.383 377.157 436.009 376.666 435.519C376.666 435.519 406.36 464.722 408.568 466.685C411.513 469.139 414.213 471.348 417.158 473.556C425.011 480.182 433.354 485.581 441.944 490.735C455.441 498.342 469.429 502.023 484.153 503.25ZM358.26 412.941C366.604 409.015 372.985 404.597 377.647 397.481C382.555 390.364 386.727 383.738 381.819 368.032C378.179 356.201 364.952 348.824 347.848 346.104C337.231 344.415 328.451 353.303 328.41 364.053C328.367 375.26 328.629 386.441 329.007 397.645C329.392 409.034 339.24 418.392 350.291 415.614C353.095 414.909 355.786 414.033 358.26 412.941Z" fill="#C47A5A"/>
<path d="M551.883 340.058C564.644 355.518 571.515 373.433 572.497 393.802C572.742 425.704 562.681 452.208 537.158 470.368C506.483 492.209 466.727 485.583 443.414 454.662C410.775 411.471 425.499 347.175 467.954 323.861C495.93 308.401 530.778 314.781 551.883 340.058ZM529.796 435.52C545.993 415.643 546.484 384.722 531.023 364.353C515.317 343.493 488.323 341.776 470.654 360.426C459.61 372.206 455.193 386.685 455.929 402.882C456.666 413.679 459.12 422.514 464.518 430.858C479.979 455.889 511.391 458.343 529.796 435.52Z" fill="#4A7860"/>
<path d="M76.1571 390.273C74.5725 385.665 68.0522 385.676 66.4824 390.289L59.1242 411.91C57.747 415.957 61.7338 419.99 65.9726 419.436C67.9954 419.171 70.0139 419.039 72.0159 419.039C73.6524 419.039 75.3021 419.132 76.9563 419.314C81.1319 419.773 84.9367 415.802 83.5706 411.829L76.1571 390.273ZM77.8285 322.818C79.9552 322.818 81.8597 324.135 82.6113 326.124L140.22 478.624C141.483 481.968 139.012 485.543 135.437 485.543H112.463C110.274 485.543 108.329 484.15 107.623 482.078L99.6869 458.765C99.3795 457.862 98.8302 457.057 98.0715 456.479C90.9983 451.091 82.6209 448.397 72.7349 448.397C61.1141 448.397 51.482 451.711 43.8384 458.446C43.2123 458.998 42.7567 459.714 42.4863 460.503L35.0946 482.087C34.3866 484.154 32.443 485.543 30.2578 485.543H7.3915C3.81799 485.543 1.34693 481.971 2.6076 478.627L60.1038 326.127C60.8545 324.136 62.7598 322.818 64.8877 322.818H77.8285Z" fill="#C9A96E"/>
<path d="M560.908 535.188C560.212 535.188 559.672 534.997 559.29 534.615C558.931 534.21 558.751 533.66 558.751 532.963V513.114C558.751 512.395 558.931 511.844 559.29 511.462C559.672 511.08 560.212 510.889 560.908 510.889C561.605 510.889 562.133 511.08 562.492 511.462C562.874 511.844 563.065 512.395 563.065 513.114V532.963C563.065 533.66 562.885 534.21 562.526 534.615C562.166 534.997 561.627 535.188 560.908 535.188ZM570.285 535.188C569.633 535.188 569.127 535.008 568.768 534.648C568.431 534.289 568.263 533.772 568.263 533.098V513.046C568.263 512.35 568.431 511.822 568.768 511.462C569.127 511.08 569.588 510.889 570.15 510.889C570.666 510.889 571.048 510.99 571.296 511.193C571.565 511.372 571.88 511.687 572.239 512.136L585.147 528.886H584.27V512.945C584.27 512.293 584.439 511.788 584.776 511.428C585.135 511.069 585.641 510.889 586.292 510.889C586.944 510.889 587.438 511.069 587.775 511.428C588.112 511.788 588.281 512.293 588.281 512.945V533.166C588.281 533.795 588.124 534.289 587.809 534.648C587.494 535.008 587.068 535.188 586.528 535.188C586.012 535.188 585.596 535.086 585.281 534.884C584.989 534.682 584.664 534.356 584.304 533.907L571.43 517.158H572.273V533.098C572.273 533.772 572.104 534.289 571.767 534.648C571.43 535.008 570.936 535.188 570.285 535.188ZM601.662 535.255C600.673 535.255 599.685 535.176 598.696 535.019C597.707 534.884 596.775 534.671 595.899 534.379C595.023 534.064 594.236 533.682 593.54 533.233C593.135 532.963 592.854 532.638 592.697 532.256C592.54 531.874 592.484 531.503 592.529 531.143C592.596 530.762 592.742 530.436 592.967 530.166C593.214 529.874 593.517 529.694 593.877 529.627C594.236 529.56 594.629 529.661 595.056 529.93C596.045 530.514 597.09 530.941 598.19 531.211C599.291 531.48 600.448 531.615 601.662 531.615C603.437 531.615 604.728 531.323 605.537 530.739C606.346 530.132 606.75 529.357 606.75 528.414C606.75 527.627 606.458 527.009 605.874 526.56C605.313 526.111 604.335 525.74 602.942 525.448L599.235 524.673C597.101 524.224 595.506 523.471 594.45 522.415C593.416 521.337 592.899 519.921 592.899 518.169C592.899 517.068 593.124 516.068 593.573 515.169C594.023 514.271 594.652 513.495 595.461 512.844C596.292 512.192 597.269 511.698 598.393 511.361C599.538 511.002 600.797 510.822 602.167 510.822C603.515 510.822 604.796 510.99 606.009 511.327C607.222 511.664 608.312 512.159 609.278 512.81C609.638 513.057 609.873 513.361 609.986 513.72C610.121 514.08 610.154 514.439 610.087 514.799C610.019 515.136 609.862 515.428 609.615 515.675C609.368 515.922 609.053 516.068 608.671 516.113C608.312 516.158 607.896 516.045 607.425 515.776C606.593 515.304 605.751 514.967 604.897 514.765C604.043 514.563 603.122 514.462 602.133 514.462C601.1 514.462 600.213 514.608 599.471 514.9C598.73 515.192 598.157 515.607 597.752 516.147C597.37 516.663 597.179 517.281 597.179 518C597.179 518.809 597.449 519.46 597.988 519.955C598.527 520.427 599.449 520.797 600.752 521.067L604.425 521.842C606.649 522.314 608.301 523.055 609.379 524.066C610.48 525.077 611.03 526.425 611.03 528.11C611.03 529.189 610.806 530.166 610.356 531.042C609.93 531.919 609.301 532.671 608.469 533.3C607.66 533.929 606.683 534.412 605.537 534.749C604.391 535.086 603.1 535.255 601.662 535.255ZM622.125 535.188C621.429 535.188 620.889 534.997 620.508 534.615C620.148 534.21 619.968 533.66 619.968 532.963V514.765H613.397C612.813 514.765 612.352 514.608 612.015 514.293C611.7 513.956 611.543 513.507 611.543 512.945C611.543 512.361 611.7 511.923 612.015 511.631C612.352 511.316 612.813 511.159 613.397 511.159H630.854C631.438 511.159 631.887 511.316 632.202 511.631C632.539 511.923 632.707 512.361 632.707 512.945C632.707 513.507 632.539 513.956 632.202 514.293C631.887 514.608 631.438 514.765 630.854 514.765H624.282V532.963C624.282 533.66 624.102 534.21 623.743 534.615C623.383 534.997 622.844 535.188 622.125 535.188ZM637.327 535.188C636.631 535.188 636.092 534.997 635.71 534.615C635.35 534.21 635.171 533.66 635.171 532.963V513.114C635.171 512.395 635.35 511.844 635.71 511.462C636.092 511.08 636.631 510.889 637.327 510.889C638.024 510.889 638.552 511.08 638.911 511.462C639.293 511.844 639.484 512.395 639.484 513.114V532.963C639.484 533.66 639.305 534.21 638.945 534.615C638.586 534.997 638.046 535.188 637.327 535.188ZM652.568 535.188C651.871 535.188 651.332 534.997 650.95 534.615C650.591 534.21 650.411 533.66 650.411 532.963V514.765H643.839C643.255 514.765 642.795 514.608 642.458 514.293C642.143 513.956 641.986 513.507 641.986 512.945C641.986 512.361 642.143 511.923 642.458 511.631C642.795 511.316 643.255 511.159 643.839 511.159H661.296C661.881 511.159 662.33 511.316 662.644 511.631C662.981 511.923 663.15 512.361 663.15 512.945C663.15 513.507 662.981 513.956 662.644 514.293C662.33 514.608 661.881 514.765 661.296 514.765H654.725V532.963C654.725 533.66 654.545 534.21 654.186 534.615C653.826 534.997 653.287 535.188 652.568 535.188ZM675.488 535.255C673.848 535.255 672.398 535.042 671.14 534.615C669.905 534.188 668.86 533.559 668.006 532.727C667.152 531.874 666.512 530.818 666.085 529.56C665.658 528.301 665.445 526.841 665.445 525.178V513.08C665.445 512.338 665.625 511.788 665.984 511.428C666.366 511.069 666.905 510.889 667.602 510.889C668.298 510.889 668.826 511.069 669.186 511.428C669.568 511.788 669.758 512.338 669.758 513.08V525.145C669.758 527.279 670.242 528.886 671.208 529.964C672.196 531.02 673.623 531.548 675.488 531.548C677.352 531.548 678.768 531.02 679.734 529.964C680.7 528.886 681.183 527.279 681.183 525.145V513.08C681.183 512.338 681.363 511.788 681.722 511.428C682.104 511.069 682.643 510.889 683.34 510.889C684.014 510.889 684.531 511.069 684.89 511.428C685.272 511.788 685.463 512.338 685.463 513.08V525.178C685.463 527.38 685.081 529.234 684.317 530.739C683.576 532.244 682.464 533.379 680.981 534.143C679.498 534.884 677.667 535.255 675.488 535.255ZM698.38 535.188C697.684 535.188 697.144 534.997 696.762 534.615C696.403 534.21 696.223 533.66 696.223 532.963V514.765H689.651C689.067 514.765 688.607 514.608 688.27 514.293C687.955 513.956 687.798 513.507 687.798 512.945C687.798 512.361 687.955 511.923 688.27 511.631C688.607 511.316 689.067 511.159 689.651 511.159H707.109C707.693 511.159 708.142 511.316 708.457 511.631C708.794 511.923 708.962 512.361 708.962 512.945C708.962 513.507 708.794 513.956 708.457 514.293C708.142 514.608 707.693 514.765 707.109 514.765H700.537V532.963C700.537 533.66 700.357 534.21 699.998 534.615C699.638 534.997 699.099 535.188 698.38 535.188ZM720.627 535.255C718.335 535.255 716.324 534.749 714.594 533.738C712.887 532.727 711.561 531.312 710.618 529.492C709.674 527.65 709.202 525.493 709.202 523.022C709.202 521.157 709.472 519.483 710.011 518C710.55 516.495 711.314 515.214 712.303 514.158C713.314 513.08 714.516 512.26 715.909 511.698C717.324 511.114 718.897 510.822 720.627 510.822C722.941 510.822 724.952 511.327 726.659 512.338C728.367 513.327 729.692 514.731 730.636 516.551C731.58 518.371 732.051 520.516 732.051 522.988C732.051 524.853 731.782 526.538 731.243 528.043C730.703 529.548 729.928 530.84 728.917 531.919C727.929 532.997 726.727 533.828 725.311 534.412C723.918 534.974 722.357 535.255 720.627 535.255ZM720.627 531.548C722.087 531.548 723.323 531.211 724.334 530.537C725.367 529.863 726.154 528.886 726.693 527.605C727.255 526.324 727.535 524.796 727.535 523.022C727.535 520.325 726.929 518.236 725.716 516.753C724.525 515.27 722.829 514.529 720.627 514.529C719.189 514.529 717.953 514.866 716.92 515.54C715.886 516.192 715.089 517.158 714.527 518.438C713.988 519.696 713.718 521.224 713.718 523.022C713.718 525.695 714.325 527.785 715.538 529.29C716.751 530.795 718.447 531.548 720.627 531.548ZM747.744 535.188C747.047 535.188 746.508 534.997 746.126 534.615C745.767 534.21 745.587 533.66 745.587 532.963V513.114C745.587 512.395 745.767 511.844 746.126 511.462C746.508 511.08 747.047 510.889 747.744 510.889C748.44 510.889 748.968 511.08 749.328 511.462C749.71 511.844 749.901 512.395 749.901 513.114V532.963C749.901 533.66 749.721 534.21 749.362 534.615C749.002 534.997 748.463 535.188 747.744 535.188ZM757.12 535.188C756.469 535.188 755.963 535.008 755.604 534.648C755.267 534.289 755.098 533.772 755.098 533.098V513.046C755.098 512.35 755.267 511.822 755.604 511.462C755.963 511.08 756.424 510.889 756.986 510.889C757.502 510.889 757.884 510.99 758.131 511.193C758.401 511.372 758.716 511.687 759.075 512.136L771.982 528.886H771.106V512.945C771.106 512.293 771.275 511.788 771.612 511.428C771.971 511.069 772.477 510.889 773.128 510.889C773.78 510.889 774.274 511.069 774.611 511.428C774.948 511.788 775.117 512.293 775.117 512.945V533.166C775.117 533.795 774.959 534.289 774.645 534.648C774.33 535.008 773.903 535.188 773.364 535.188C772.847 535.188 772.432 535.086 772.117 534.884C771.825 534.682 771.499 534.356 771.14 533.907L758.266 517.158H759.109V533.098C759.109 533.772 758.94 534.289 758.603 534.648C758.266 535.008 757.772 535.188 757.12 535.188ZM782.532 535.188C781.836 535.188 781.285 534.997 780.881 534.615C780.499 534.21 780.308 533.637 780.308 532.896V513.451C780.308 512.709 780.499 512.147 780.881 511.765C781.285 511.361 781.858 511.159 782.6 511.159H794.361C794.946 511.159 795.384 511.305 795.676 511.597C795.968 511.889 796.114 512.305 796.114 512.844C796.114 513.406 795.968 513.844 795.676 514.158C795.384 514.45 794.946 514.596 794.361 514.596H784.622V521.303H793.654C794.215 521.303 794.642 521.449 794.934 521.741C795.249 522.033 795.406 522.449 795.406 522.988C795.406 523.55 795.249 523.988 794.934 524.302C794.642 524.594 794.215 524.74 793.654 524.74H784.622V532.896C784.622 534.424 783.925 535.188 782.532 535.188ZM797.625 535.188C797.086 535.188 796.648 535.064 796.311 534.817C795.996 534.57 795.805 534.244 795.738 533.84C795.67 533.413 795.749 532.941 795.974 532.424L804.871 512.709C805.163 512.058 805.511 511.597 805.915 511.327C806.342 511.035 806.825 510.889 807.364 510.889C807.881 510.889 808.342 511.035 808.746 511.327C809.173 511.597 809.533 512.058 809.825 512.709L818.755 532.424C819.002 532.941 819.092 533.413 819.025 533.84C818.958 534.266 818.767 534.603 818.452 534.851C818.137 535.075 817.722 535.188 817.205 535.188C816.576 535.188 816.082 535.042 815.722 534.749C815.385 534.435 815.082 533.963 814.812 533.334L812.622 528.245L814.442 529.425H800.22L802.04 528.245L799.883 533.334C799.591 533.986 799.287 534.457 798.973 534.749C798.658 535.042 798.209 535.188 797.625 535.188ZM807.297 515.843L802.579 527.066L801.703 525.987H812.959L812.116 527.066L807.364 515.843H807.297ZM824.489 535.188C823.838 535.188 823.332 535.008 822.973 534.648C822.636 534.289 822.467 533.772 822.467 533.098V513.046C822.467 512.35 822.636 511.822 822.973 511.462C823.332 511.08 823.793 510.889 824.354 510.889C824.871 510.889 825.253 510.99 825.5 511.193C825.77 511.372 826.084 511.687 826.444 512.136L839.351 528.886H838.475V512.945C838.475 512.293 838.644 511.788 838.981 511.428C839.34 511.069 839.846 510.889 840.497 510.889C841.149 510.889 841.643 511.069 841.98 511.428C842.317 511.788 842.485 512.293 842.485 512.945V533.166C842.485 533.795 842.328 534.289 842.014 534.648C841.699 535.008 841.272 535.188 840.733 535.188C840.216 535.188 839.801 535.086 839.486 534.884C839.194 534.682 838.868 534.356 838.509 533.907L825.635 517.158H826.478V533.098C826.478 533.772 826.309 534.289 825.972 534.648C825.635 535.008 825.141 535.188 824.489 535.188ZM855.563 535.188C854.867 535.188 854.327 534.997 853.945 534.615C853.586 534.21 853.406 533.66 853.406 532.963V514.765H846.834C846.25 514.765 845.79 514.608 845.453 514.293C845.138 513.956 844.981 513.507 844.981 512.945C844.981 512.361 845.138 511.923 845.453 511.631C845.79 511.316 846.25 511.159 846.834 511.159H864.292C864.876 511.159 865.325 511.316 865.64 511.631C865.977 511.923 866.145 512.361 866.145 512.945C866.145 513.507 865.977 513.956 865.64 514.293C865.325 514.608 864.876 514.765 864.292 514.765H857.72V532.963C857.72 533.66 857.54 534.21 857.181 534.615C856.821 534.997 856.282 535.188 855.563 535.188ZM870.765 535.188C870.069 535.188 869.53 534.997 869.148 534.615C868.788 534.21 868.608 533.66 868.608 532.963V513.114C868.608 512.395 868.788 511.844 869.148 511.462C869.53 511.08 870.069 510.889 870.765 510.889C871.462 510.889 871.99 511.08 872.349 511.462C872.731 511.844 872.922 512.395 872.922 513.114V532.963C872.922 533.66 872.742 534.21 872.383 534.615C872.023 534.997 871.484 535.188 870.765 535.188ZM880.31 534.918C879.614 534.918 879.075 534.727 878.693 534.345C878.311 533.941 878.12 533.39 878.12 532.694V513.248C878.12 512.529 878.299 511.99 878.659 511.631C879.041 511.249 879.58 511.058 880.277 511.058C880.973 511.058 881.501 511.249 881.86 511.631C882.242 511.99 882.433 512.529 882.433 513.248V531.245H892.207C892.813 531.245 893.274 531.402 893.588 531.716C893.925 532.031 894.094 532.48 894.094 533.064C894.094 533.649 893.925 534.109 893.588 534.446C893.274 534.761 892.813 534.918 892.207 534.918H880.31Z" fill="#4A7860"/>
<path d="M258.453 237.156C258.453 237.156 302.032 118.998 426.956 118.998C551.881 118.998 592.554 237.156 592.554 237.156H258.453Z" fill="#C9A96E"/>
<path d="M594.546 231.791C594.976 233.023 595.59 234.68 596.027 235.96L597.758 240.749L592.554 240.829C577.519 240.718 564.723 243.682 545.797 243.218C525.101 242.71 522.001 240.805 498.299 241.233C474.597 241.662 450.882 240.359 440.329 241.142C429.776 241.925 428.662 239.557 413.675 240.083C398.69 240.609 389.607 240.3 376.501 239.53C363.394 238.761 323.128 238.104 308.486 239.049C293.844 239.994 277.143 238.354 267.1 237.965C263.972 237.844 261.51 237.678 259.622 237.505C258.823 237.432 258.453 237.279 258.453 237.128C258.453 237.128 258.453 237.128 258.453 237.128C258.453 236.94 259.026 236.755 260.054 236.731C265.042 236.616 272.497 236.311 281.304 235.629C297.726 234.357 299.52 235.763 321.695 235.109C343.869 234.456 357.192 233.149 383.283 233.994C409.374 234.839 415.367 231.303 452.197 233.307C489.026 235.31 492.902 231.613 529.603 231.121C549.554 230.853 572.349 231.334 592.554 231.802L587.492 238.898C582.22 223.804 574.733 210.565 569.23 202.362C557.281 184.465 537.63 162.263 511.597 146.291C489.12 131.966 457.139 123.85 426.956 123.878C422.408 123.829 418.145 123.903 413.779 124.098C379.49 123.86 334.569 144.79 317.704 159.72C300.363 173.82 296.466 178.036 283.705 195.443C276.472 205.699 267.464 219.994 260.73 233.063C257.485 239.649 257.394 237.855 260.087 230.901C264.15 220.82 268.959 213.265 271.18 208.04C275.714 197.725 277.911 193.195 287.608 182.697C297.466 172.405 300.768 166.286 307.083 160.779C314.006 156.096 312.403 153.957 349.133 132.749C386.411 114.262 411.115 114.57 426.956 113.846C427.418 113.84 427.872 113.835 428.321 113.831C444.553 113.18 478.342 118.955 502.214 130.584C527.635 139.738 566.555 178.161 577.545 196.721C589.594 214.638 588.216 215.593 594.546 231.791Z" fill="#C9A96E"/>
<path d="M181.039 101.09L215.471 70.1691L279.56 141.602L274.641 146.019L181.039 101.09Z" fill="#C9A96E"/>
<path d="M278.851 137.099C279.717 138.285 280.716 139.288 281.794 140.225L283.147 141.637L281.584 143.13C280.191 144.723 279.002 146.432 277.517 148.19L275.504 150.113L272.622 148.828C270.856 148.232 269.025 147.511 267.12 146.491C260.945 143.185 260.679 141.774 253.244 138.494C245.809 135.214 238.994 131.065 235.47 129.901C231.947 128.737 232.457 127.388 227.665 125.441C222.872 123.495 220.194 122.001 216.445 119.684C212.696 117.366 200.564 111.1 195.726 109.414C190.888 107.729 186.349 104.445 183.404 102.77C182.487 102.248 181.79 101.802 181.272 101.437C181.053 101.283 180.995 101.152 181.049 101.076C181.049 101.076 181.049 101.076 181.049 101.076C181.117 100.982 181.359 100.974 181.684 101.113C183.257 101.791 185.657 102.738 188.608 103.695C194.11 105.479 194.155 106.447 201.202 109.39C208.248 112.332 212.811 113.642 220.521 117.912C228.231 122.182 231.344 121.295 241.936 127.728C252.528 134.162 255.049 132.882 266.5 138.047C269.825 139.547 273.322 141.273 276.779 143.046L271.598 143.72C273.304 142.273 275.026 140.839 276.71 139.449L276.414 143.541C272.309 138.526 268.627 133.886 266.063 131.116C261.293 125.966 254.773 119.12 248.424 111.565C242.074 104.011 233.199 95.3243 226.378 86.8695C222.585 82.1675 217.895 76.3975 213.73 71.2418L217.048 71.36C212.719 74.8938 208.797 78.0773 206.179 80.1512C200.282 84.8232 198.851 85.9671 193.768 90.913C190.847 93.7559 186.514 97.4399 182.472 100.263C180.438 101.684 180.502 101.062 182.138 99.3215C184.532 96.7768 186.853 94.9568 187.782 93.416C189.638 90.3372 190.463 89.0553 194.382 86.3578C198.3 83.6603 198.783 81.3597 200.908 79.6667C203.032 77.9736 203.666 78.5061 213.294 69.0108C213.388 68.9188 213.481 68.8271 213.573 68.7359L215.588 66.8122L217.566 68.8781C226.734 78.1392 231.627 83.3453 235.053 86.9305C238.512 90.5508 244.813 98.6785 250.46 104.573C256.106 110.468 266.906 122.871 271.722 127.586C276.538 132.3 275.724 132.818 278.851 137.099Z" fill="#C9A96E"/>
<path d="M310.012 13.1875L355.127 2.87825L376.463 96.4453L370.018 97.9181L310.012 13.1875Z" fill="#C9A96E"/>
<path d="M378.029 92.1646C378.211 93.6219 378.597 94.9836 379.084 96.3268L379.581 98.218L377.49 98.7638C375.498 99.4804 373.629 100.396 371.478 101.213L368.784 101.916L366.888 99.393C365.634 98.0145 364.383 96.4944 363.213 94.6778C359.421 88.7897 359.874 87.427 354.967 80.9491C350.061 74.4715 346.118 67.5349 343.603 64.8063C341.088 62.0778 342.189 61.1458 338.945 57.117C335.701 53.0884 334.085 50.4817 331.933 46.6352C329.781 42.7885 322.219 31.4196 318.808 27.5969C315.397 23.7741 313.024 18.6994 311.263 15.8045C310.715 14.9028 310.322 14.1747 310.047 13.6045C309.93 13.363 309.943 13.22 310.027 13.1803C310.027 13.1802 310.027 13.1802 310.027 13.1802C310.132 13.1308 310.348 13.2414 310.564 13.5209C311.61 14.8776 313.248 16.8705 315.363 19.14C319.306 23.3717 318.875 24.2402 323.607 30.2341C328.338 36.228 331.69 39.589 336.357 47.0658C341.023 54.5425 344.175 55.2794 350.31 66.0468C356.445 76.8139 359.271 76.9196 366.772 86.9953C368.95 89.921 371.169 93.1285 373.331 96.357L368.473 94.4306C370.668 93.9935 372.869 93.5769 375.016 93.1792L372.771 96.6123C371.618 90.235 370.653 84.3909 369.756 80.7246C368.088 73.9065 365.712 64.7554 363.83 55.068C361.949 45.3807 358.408 33.477 356.551 22.7737C355.519 16.8213 354.222 9.50031 353.084 2.97064L355.927 4.68522C350.426 5.67177 345.453 6.55056 342.157 7.09212C334.732 8.31217 332.926 8.61741 326.081 10.4727C322.147 11.5392 316.57 12.6557 311.666 13.1608C309.198 13.415 309.556 12.9019 311.831 12.1755C315.159 11.1132 318.072 10.6493 319.633 9.75363C322.751 7.96378 324.094 7.24357 328.829 6.78848C333.565 6.33337 335.104 4.55672 337.784 4.10845C340.463 3.66023 340.758 4.43326 353.787 0.808647C353.913 0.77351 354.039 0.738542 354.164 0.703744L356.859 0.000647823L357.585 2.76707C361.102 15.315 362.851 22.2421 364.105 27.0398C365.371 31.8845 366.932 42.0495 369.006 49.9446C371.079 57.8398 374.497 73.9265 376.417 80.3867C378.338 86.8467 377.375 86.9037 378.029 92.1646Z" fill="#C9A96E"/>
<path d="M671.438 101.09L637.005 70.1691L572.916 141.602L577.835 146.019L671.438 101.09Z" fill="#C9A96E"/>
<path d="M573.626 137.099C572.76 138.285 571.761 139.288 570.682 140.225L569.33 141.637L570.893 143.13C572.286 144.723 573.475 146.432 574.959 148.19L576.972 150.113L579.855 148.828C581.621 148.232 583.452 147.511 585.357 146.491C591.531 143.185 591.798 141.774 599.233 138.494C606.667 135.214 613.483 131.065 617.006 129.901C620.529 128.737 620.019 127.388 624.812 125.441C629.604 123.495 632.283 122.001 636.032 119.684C639.781 117.366 651.913 111.1 656.751 109.414C661.589 107.729 666.128 104.445 669.073 102.77C669.99 102.248 670.687 101.802 671.204 101.437C671.423 101.283 671.482 101.152 671.428 101.076C671.428 101.076 671.428 101.076 671.427 101.076C671.36 100.982 671.117 100.974 670.793 101.113C669.219 101.791 666.82 102.738 663.869 103.695C658.367 105.479 658.322 106.447 651.275 109.39C644.229 112.332 639.666 113.642 631.956 117.912C624.246 122.182 621.132 121.295 610.54 127.728C599.949 134.162 597.427 132.882 585.977 138.047C582.652 139.547 579.155 141.273 575.697 143.046L580.879 143.72C579.173 142.273 577.451 140.839 575.767 139.449L576.063 143.541C580.168 138.526 583.849 133.886 586.414 131.116C591.183 125.966 597.704 119.12 604.053 111.565C610.402 104.011 619.278 95.3243 626.099 86.8695C629.892 82.1675 634.581 76.3975 638.746 71.2418L635.428 71.36C639.758 74.8938 643.679 78.0773 646.297 80.1512C652.195 84.8232 653.626 85.9671 658.708 90.913C661.63 93.7559 665.962 97.4399 670.004 100.263C672.038 101.684 671.975 101.062 670.338 99.3215C667.945 96.7768 665.624 94.9568 664.695 93.416C662.838 90.3372 662.014 89.0553 658.095 86.3578C654.176 83.6603 653.694 81.3597 651.569 79.6667C649.444 77.9736 648.811 78.5061 639.182 69.0108C639.089 68.9188 638.996 68.8271 638.903 68.7359L636.888 66.8122L634.91 68.8781C625.743 78.1392 620.849 83.3453 617.424 86.9305C613.964 90.5508 607.663 98.6785 602.017 104.573C596.37 110.468 585.57 122.871 580.754 127.586C575.939 132.3 576.753 132.818 573.626 137.099Z" fill="#C9A96E"/>
<path d="M542.762 13.1875L497.646 2.87825L476.31 96.4453L482.755 97.9181L542.762 13.1875Z" fill="#C9A96E"/>
<path d="M474.744 92.1646C474.563 93.6219 474.177 94.9836 473.689 96.3268L473.193 98.218L475.283 98.7638C477.276 99.4804 479.144 100.396 481.296 101.213L483.989 101.916L485.885 99.393C487.14 98.0145 488.39 96.4944 489.56 94.6778C493.352 88.7897 492.9 87.427 497.806 80.9491C502.713 74.4715 506.656 67.5349 509.171 64.8063C511.685 62.0778 510.584 61.1458 513.829 57.117C517.073 53.0884 518.689 50.4817 520.84 46.6352C522.992 42.7885 530.555 31.4196 533.965 27.5969C537.376 23.7741 539.75 18.6994 541.51 15.8045C542.059 14.9028 542.451 14.1747 542.727 13.6045C542.843 13.363 542.831 13.22 542.746 13.1803C542.746 13.1802 542.746 13.1802 542.746 13.1802C542.641 13.1308 542.425 13.2414 542.21 13.5209C541.163 14.8776 539.525 16.8705 537.41 19.14C533.467 23.3717 533.898 24.2402 529.167 30.2341C524.436 36.228 521.083 39.589 516.417 47.0658C511.75 54.5425 508.598 55.2794 502.463 66.0468C496.329 76.8139 493.503 76.9196 486.001 86.9953C483.823 89.921 481.604 93.1285 479.443 96.357L484.3 94.4306C482.106 93.9935 479.904 93.5769 477.757 93.1792L480.003 96.6123C481.156 90.235 482.121 84.3909 483.018 80.7246C484.686 73.9065 487.062 64.7554 488.943 55.068C490.825 45.3807 494.366 33.477 496.222 22.7737C497.255 16.8213 498.552 9.50031 499.689 2.97064L496.846 4.68522C502.347 5.67177 507.321 6.55056 510.617 7.09212C518.041 8.31217 519.847 8.61741 526.692 10.4727C530.627 11.5392 536.203 12.6557 541.107 13.1608C543.575 13.415 543.218 12.9019 540.942 12.1755C537.614 11.1132 534.701 10.6493 533.141 9.75363C530.023 7.96378 528.68 7.24357 523.944 6.78848C519.209 6.33337 517.669 4.55672 514.99 4.10845C512.31 3.66023 512.015 4.43326 498.987 0.808647C498.861 0.77351 498.735 0.738542 498.61 0.703744L495.914 0.000647823L495.188 2.76707C491.671 15.315 489.922 22.2421 488.668 27.0398C487.402 31.8845 485.841 42.0495 483.768 49.9446C481.694 57.8398 478.276 73.9265 476.356 80.3867C474.436 86.8467 475.399 86.9037 474.744 92.1646Z" fill="#C9A96E"/>
<path d="M402.846 188.328C398.513 182.725 394.601 176.436 393.786 169.4C392.971 162.363 396.007 154.472 402.432 151.497C408.035 148.902 414.99 150.648 419.663 154.689C424.335 158.723 426.991 164.666 428.356 170.69C430.522 164.041 433.531 157.664 437.287 151.762C439.297 148.597 442.17 145.235 445.919 145.405C449.234 145.554 451.733 148.474 453.288 151.402C457.642 159.606 457.879 169.542 455.523 178.528C453.01 188.118 444.5 209.579 433.151 211.413C421.632 213.274 408.871 196.105 402.853 188.328H402.846Z" fill="white"/>
<path d="M455.151 235.016C466.033 235.693 474.599 232.7 487.862 233.123C501.125 233.546 503.111 235.134 518.301 234.776C533.489 234.419 548.687 235.505 555.45 234.853C562.213 234.2 562.926 236.173 572.53 235.735C582.134 235.297 587.954 235.555 596.353 236.196C604.753 236.837 630.557 237.385 639.94 236.597C649.323 235.809 660.025 237.176 666.461 237.5C668.466 237.601 670.044 237.739 671.253 237.883C671.766 237.944 672.002 238.072 672.003 238.198C672.003 238.198 672.003 238.198 672.003 238.198C672.002 238.355 671.635 238.509 670.977 238.528C667.78 238.625 663.003 238.878 657.359 239.447C646.835 240.507 645.685 239.335 631.475 239.88C617.264 240.425 608.727 241.514 592.007 240.809C575.287 240.105 571.446 243.052 547.844 241.382C524.243 239.712 521.759 242.794 498.239 243.204C474.719 243.613 445.03 241.913 430.852 242.054C416.674 242.195 397.632 242.554 377.533 242.147C357.434 241.741 332.622 242.767 310.436 242.042C288.25 241.316 256.883 240.4 242.392 239.786C227.902 239.171 224.37 239.033 210.422 239.408C202.405 239.624 191.36 239.421 182.031 238.627C177.336 238.228 178.4 237.672 183.126 237.406C190.036 237.017 195.709 237.277 199.27 236.583C206.385 235.194 209.409 234.662 218.391 235.47C227.372 236.278 231.605 234.441 236.84 234.653C242.076 234.864 241.99 235.947 268.613 235.113C295.236 234.278 309.83 234.065 319.912 233.865C329.994 233.665 351.046 234.605 367.477 234.265C383.908 233.926 417.312 234.237 430.777 233.682C444.242 233.126 444.27 234.339 455.151 235.016Z" fill="#C9A96E"/>
</svg>
